<svg width="32" height="32" viewBox="0 0 32 32" fill="none" xmlns="http://www.w3.org/2000/svg">
<path d="M17.6448 0C19.4447 0.00479988 20.3583 0.0143997 21.147 0.0367991L21.4574 0.0479988C21.8158 0.0607985 22.1694 0.0767981 22.5966 0.0959976C24.2989 0.175996 25.4604 0.444789 26.4796 0.83998C27.5355 1.24637 28.4251 1.79676 29.3146 2.68474C30.1285 3.48429 30.7581 4.45185 31.1593 5.51987C31.5545 6.53904 31.8233 7.70061 31.9033 9.40457C31.9225 9.83016 31.9385 10.1838 31.9513 10.5437L31.9609 10.8541C31.9849 11.6413 31.9945 12.5549 31.9977 14.3549L31.9993 15.5484V17.6444C32.0032 18.8114 31.9909 19.9784 31.9625 21.1451L31.9529 21.4555C31.9401 21.8155 31.9241 22.1691 31.9049 22.5947C31.8249 24.2986 31.5529 25.4586 31.1593 26.4794C30.7581 27.5474 30.1285 28.5149 29.3146 29.3145C28.5151 30.1284 27.5476 30.758 26.4796 31.1592C25.4604 31.5544 24.2989 31.8232 22.5966 31.9032L21.4574 31.9512L21.147 31.9608C20.3583 31.9832 19.4447 31.9944 17.6448 31.9976L16.4513 31.9992H14.357C13.1895 32.0033 12.0219 31.9911 10.8548 31.9624L10.5444 31.9528C10.1646 31.9384 9.78485 31.9219 9.40524 31.9032C7.70292 31.8232 6.54138 31.5544 5.52063 31.1592C4.45321 30.7577 3.48624 30.1282 2.68717 29.3145C1.87273 28.5151 1.24262 27.5475 0.840868 26.4794C0.445688 25.4602 0.176901 24.2986 0.0969051 22.5947L0.0489076 21.4555L0.0409082 21.1451C0.0114153 19.9784 -0.00191877 18.8114 0.000910029 17.6444V14.3549C-0.00351838 13.1878 0.00821561 12.0208 0.0361084 10.8541L0.0473078 10.5437C0.0601071 10.1838 0.0761063 9.83016 0.0953053 9.40457C0.175301 7.70061 0.444088 6.54064 0.839268 5.51987C1.24196 4.45141 1.87317 3.48381 2.68877 2.68474C3.48738 1.87123 4.45379 1.24169 5.52063 0.83998C6.54138 0.444789 7.70132 0.175996 9.40524 0.0959976C9.83081 0.0767981 10.186 0.0607985 10.5444 0.0479988L10.8548 0.038399C12.0214 0.00997209 13.1884 -0.00229546 14.3554 0.00159985L17.6448 0ZM16.0001 7.99981C13.8785 7.99981 11.8438 8.84264 10.3435 10.3429C8.84332 11.8432 8.00051 13.8779 8.00051 15.9996C8.00051 18.1213 8.84332 20.1561 10.3435 21.6563C11.8438 23.1566 13.8785 23.9994 16.0001 23.9994C18.1217 23.9994 20.1565 23.1566 21.6567 21.6563C23.1569 20.1561 23.9997 18.1213 23.9997 15.9996C23.9997 13.8779 23.1569 11.8432 21.6567 10.3429C20.1565 8.84264 18.1217 7.99981 16.0001 7.99981ZM16.0001 11.1997C16.6304 11.1996 17.2546 11.3237 17.837 11.5648C18.4193 11.8059 18.9485 12.1594 19.3943 12.605C19.8401 13.0507 20.1937 13.5797 20.435 14.162C20.6763 14.7443 20.8006 15.3685 20.8007 15.9988C20.8008 16.6291 20.6767 17.2533 20.4356 17.8357C20.1945 18.4181 19.841 18.9473 19.3954 19.3931C18.9498 19.8389 18.4207 20.1925 17.8384 20.4338C17.2561 20.6751 16.632 20.7994 16.0017 20.7995C14.7287 20.7995 13.5079 20.2938 12.6078 19.3936C11.7076 18.4935 11.2019 17.2726 11.2019 15.9996C11.2019 14.7266 11.7076 13.5057 12.6078 12.6056C13.5079 11.7054 14.7287 11.1997 16.0017 11.1997M24.4013 5.59986C23.8709 5.59986 23.3622 5.81057 22.9871 6.18564C22.6121 6.5607 22.4014 7.0694 22.4014 7.59982C22.4014 8.13024 22.6121 8.63893 22.9871 9.014C23.3622 9.38906 23.8709 9.59977 24.4013 9.59977C24.9317 9.59977 25.4404 9.38906 25.8154 9.014C26.1905 8.63893 26.4012 8.13024 26.4012 7.59982C26.4012 7.0694 26.1905 6.5607 25.8154 6.18564C25.4404 5.81057 24.9317 5.59986 24.4013 5.59986Z" fill="#7D7D7D"/>
</svg>
