<svg width="42" height="72" viewBox="0 0 42 72" fill="none" xmlns="http://www.w3.org/2000/svg">
<path d="M41.9233 32.7511C41.9233 40.3164 41.9123 47.7967 41.9268 55.2769C41.9385 61.3396 39.5437 66.1446 34.4688 69.4897C31.9108 71.1757 29.0149 71.9389 25.9614 71.971C22.4009 72.0085 18.8381 72.0215 15.2789 71.9361C7.55539 71.7508 0.581731 65.424 0.0677752 56.9757C0.0333761 56.4105 0.0115479 55.8435 0.0114237 55.2774C0.0082965 42.3853 0.0284473 29.4931 5.40547e-05 16.6011C-0.0124339 10.9378 2.13861 6.36547 6.69492 3.01628C9.15214 1.21007 11.9355 0.0989303 15.0218 0.0531577C18.9774 -0.00550501 22.9368 -0.0356655 26.8905 0.0710329C33.0992 0.238579 38.8772 4.60617 40.9294 10.5119C41.6061 12.4593 41.918 14.462 41.9207 16.5153C41.9279 21.8989 41.9233 27.2825 41.9233 32.7511ZM13.7947 53.5847C13.795 54.3215 13.7862 55.0585 13.7977 55.7951C13.8218 57.3445 14.6155 58.1252 16.177 58.1276C19.3431 58.1324 22.5092 58.1316 25.6753 58.1279C27.4017 58.1259 28.2491 57.3117 28.2501 55.5954C28.257 42.5312 28.2574 29.4669 28.2499 16.4027C28.2489 14.5294 27.3488 13.6616 25.4739 13.6595C22.5339 13.6561 19.5939 13.6573 16.654 13.6591C14.53 13.6604 13.7951 14.3951 13.7949 16.5176C13.7943 28.8167 13.7947 41.1157 13.7947 53.5847Z" fill="#FDFDFD"/>
</svg>
