<svg width="39" height="72" viewBox="0 0 39 72" fill="none" xmlns="http://www.w3.org/2000/svg">
<path d="M7.01538 71.9915C4.67944 71.9915 2.42811 71.9915 0.0847527 71.9915C0.0594383 71.608 0.0193131 71.2835 0.0192731 70.9591C0.0164016 47.6377 0.0205785 24.3163 1.73163e-06 0.994911C-0.000687038 0.214112 0.203889 -0.00746193 0.986744 0.000190071C4.96239 0.0390635 8.93928 -0.0275264 12.9144 0.0308136C17.1383 0.0928036 21.2076 0.871076 24.8366 3.19038C29.8941 6.4227 33.0142 10.9851 34.1158 16.9255C35.1481 22.4919 34.0057 27.5785 30.8275 32.2193C30.4435 32.7799 30.66 33.0335 31.0504 33.3952C34.6933 36.77 36.9328 40.9426 37.7744 45.8156C38.858 52.0897 37.4401 57.8323 33.6762 62.9472C30.9111 66.7048 27.2878 69.3696 22.8632 70.8589C20.7526 71.5692 18.5775 72.0218 16.3209 71.9992C13.2476 71.9684 10.1737 71.9915 7.01538 71.9915ZM13.8388 44.2962C13.8388 48.7023 13.8494 53.1085 13.8266 57.5145C13.8234 58.1321 13.9846 58.4039 14.6306 58.3448C15.3587 58.2783 16.0954 58.2999 16.8219 58.2221C21.6334 57.7064 25.1901 52.8627 24.2387 48.1191C23.3129 43.5034 19.4285 40.5892 14.3457 41.011C14.1624 41.0263 13.8763 41.3769 13.8624 41.5862C13.8066 42.4298 13.839 43.2793 13.8388 44.2962ZM18.778 25.3819C21.0926 23.0956 21.5239 19.8537 19.8951 17.0954C18.6688 15.0189 15.651 13.5022 13.9115 14.0696C13.9115 18.446 13.9115 22.8083 13.9115 27.2052C15.786 27.244 17.3423 26.6425 18.778 25.3819Z" fill="#FEFEFE"/>
</svg>
