<svg width="49" height="72" viewBox="0 0 49 72" fill="none" xmlns="http://www.w3.org/2000/svg">
<path d="M36.0106 4.04634C36.6663 7.50056 37.3079 10.8833 37.9503 14.2658C38.9138 19.3397 39.8746 24.4141 40.8425 29.4871C41.7892 34.449 42.7464 39.409 43.6936 44.3708C44.9266 50.8296 46.1514 57.2899 47.386 63.7484C47.8469 66.1596 48.3278 68.5669 48.7931 70.9772C48.8502 71.2731 48.8666 71.5769 48.9137 71.9774C48.5154 71.9774 48.2131 71.9774 47.9109 71.9774C43.9923 71.9774 40.0732 71.9484 36.1553 71.9996C35.2738 72.0112 34.9672 71.7493 34.8099 70.8807C34.0202 66.5217 33.1552 62.1765 32.2995 57.7369C32.0284 57.7219 31.7581 57.6941 31.4877 57.694C27.1744 57.6912 22.861 57.705 18.5479 57.678C17.8959 57.6739 17.6398 57.8587 17.4818 58.5202C16.4597 62.7988 15.3733 67.062 14.3312 71.3359C14.218 71.8003 14.0452 71.989 13.5485 71.987C9.17882 71.9698 4.80909 71.9767 0.439378 71.9741C0.329722 71.974 0.220081 71.9476 0 71.9193C0.367572 70.4207 0.723335 68.9539 1.08729 67.4892C3.05956 59.5516 5.02926 51.6135 7.00882 43.6778C8.81111 36.4527 10.6265 29.231 12.4331 22.007C14.2053 14.9206 15.9845 7.83606 17.7243 0.741755C17.8765 0.12118 18.147 -0.00680188 18.704 0.00669559C21.1247 0.0653627 23.546 0.128955 25.967 0.126913C28.7545 0.124563 31.5424 0.0738831 34.3289 0.00124221C35.0202 -0.016777 35.3271 0.155446 35.4097 0.898987C35.5246 1.93327 35.7938 2.95033 36.0106 4.04634ZM25.554 25.9466C24.0793 31.8946 22.6045 37.8427 21.1139 43.8547C24.0006 43.8547 26.7657 43.8547 29.6213 43.8547C28.4109 37.4855 27.2152 31.1944 26.0196 24.9033C25.9657 24.8979 25.9119 24.8925 25.858 24.887C25.7644 25.1949 25.6708 25.5027 25.554 25.9466Z" fill="#FDFDFD"/>
</svg>
