<svg width="55" height="71" viewBox="0 0 55 71" fill="none" xmlns="http://www.w3.org/2000/svg">
<path d="M6.00753 0.221767C10.8761 0.221814 15.6594 0.238474 20.4423 0.203701C21.1527 0.198537 21.5112 0.442863 21.8018 1.0616C24.2717 6.31962 26.7603 11.5688 29.2545 16.8153C31.6386 21.8302 34.0358 26.8389 36.4294 31.8492C36.4987 31.9942 36.5934 32.1271 36.7974 32.4685C41.6375 22.3753 46.4031 12.4375 51.2249 2.38237C50.8821 2.34976 50.6479 2.30823 50.4136 2.30804C45.7158 2.30411 41.018 2.31514 36.3204 2.29165C35.7449 2.28877 35.4695 2.49212 35.2314 3.00085C33.9038 5.83739 32.54 8.65696 31.185 11.4806C31.1025 11.6525 30.9886 11.8093 30.8088 12.106C30.3805 11.3452 29.9736 10.7001 29.657 10.0132C29.5615 9.80581 29.6542 9.45269 29.7661 9.21661C31.1573 6.28327 32.5526 3.35156 34.001 0.446506C34.1244 0.198919 34.6334 0.0208105 34.9642 0.019253C40.459 -0.00657488 45.954 0.00101174 51.4489 0.00112152C52.5511 0.00114499 53.6533 0.00112675 54.9513 0.00112675C48.9085 12.5467 42.9419 24.9342 36.8771 37.5256C36.2886 36.3532 35.7987 35.3998 35.3284 34.4367C31.13 25.8398 26.9343 17.2414 22.7396 8.64269C21.828 6.77393 20.9195 4.90363 20.0183 3.02983C19.812 2.60088 19.6124 2.28739 19.0251 2.2906C14.242 2.31673 9.4588 2.30528 4.67563 2.30816C4.54132 2.30824 4.40702 2.34057 4.13364 2.37577C4.77008 3.72299 5.36458 4.99966 5.9743 6.26898C8.50183 11.5308 11.0332 16.7908 13.5646 22.0507C16.2691 27.6703 18.9749 33.2893 21.6808 38.9082C24.0157 43.7567 26.3608 48.6004 28.6661 53.463C28.8171 53.7816 28.7961 54.3072 28.6379 54.6292C26.0385 59.918 23.4095 65.1922 20.7609 70.4564C20.6375 70.7016 20.2694 70.9777 20.0142 70.9788C13.4944 71.0069 6.97449 71.0005 0.454574 70.9961C0.350599 70.996 0.246646 70.9463 0 70.8834C5.4672 59.5674 10.9055 48.3113 16.4243 36.8887C17.134 38.3764 17.7689 39.5032 16.8879 41.1195C14.6953 45.142 12.7326 49.2909 10.6896 53.395C8.35434 58.0859 6.03156 62.7831 3.70533 67.4785C3.57047 67.7507 3.45332 68.0317 3.26781 68.4415C3.65587 68.4739 3.91967 68.5148 4.18348 68.515C8.96666 68.5189 13.7499 68.5083 18.5329 68.5306C19.0975 68.5332 19.3832 68.3628 19.6347 67.8435C21.77 63.4346 23.933 59.039 26.1076 54.6494C26.403 54.0531 26.3713 53.5375 26.0885 52.9534C21.0271 42.496 15.9793 32.0321 10.924 21.5718C7.61621 14.7272 4.3009 7.88617 0.991443 1.04233C0.894215 0.841271 0.825247 0.626482 0.665682 0.221723C2.4919 0.221723 4.20701 0.221723 6.00753 0.221767Z" fill="#F0D100"/>
</svg>
