<svg width="38" height="72" viewBox="0 0 38 72" fill="none" xmlns="http://www.w3.org/2000/svg">
<path d="M7.30713e-06 70.3312C7.30713e-06 47.1995 -3.39578e-05 24.1508 7.96354e-05 1.10211C7.96354e-05 0.00112434 0.000627302 0.00031878 1.10394 0.000212713C4.99705 -0.000160304 8.89016 7.01633e-05 12.7833 7.28786e-05C13.0616 7.28786e-05 13.3399 7.02891e-05 13.7293 7.02891e-05C13.7293 19.3876 13.7293 38.7134 13.7293 58.1378C21.8645 58.1378 29.8892 58.1378 37.9743 58.1378C37.9743 62.7732 37.9743 67.3102 37.9743 72C37.6294 72 37.277 72 36.9247 72C25.1325 72 13.3403 72 1.54817 72C1.75977e-05 72 1.76338e-05 72 7.30713e-06 70.3312Z" fill="#FDFDFD"/>
</svg>
