<svg width="44" height="44" viewBox="0 0 44 44" fill="none" xmlns="http://www.w3.org/2000/svg">
<path d="M41.913 31.9444V37.9641C41.9152 38.5229 41.8008 39.076 41.5769 39.588C41.353 40.1001 41.0247 40.5597 40.6129 40.9375C40.2011 41.3153 39.715 41.6029 39.1856 41.7819C38.6562 41.961 38.0953 42.0274 37.5387 41.9771C31.3642 41.3062 25.4332 39.1964 20.2222 35.8171C15.374 32.7363 11.2637 28.6259 8.18293 23.7778C4.79182 18.5431 2.68147 12.5832 2.02283 6.38101C1.97269 5.82614 2.03863 5.2669 2.21647 4.7389C2.3943 4.21091 2.68012 3.72573 3.05574 3.31425C3.43135 2.90277 3.88853 2.57401 4.39816 2.3489C4.9078 2.12379 5.45872 2.00727 6.01586 2.00674H12.0355C13.0093 1.99716 13.9533 2.34199 14.6917 2.97697C15.43 3.61195 15.9123 4.49375 16.0486 5.458C16.3027 7.38442 16.7739 9.27591 17.4532 11.0964C17.7231 11.8146 17.7816 12.5951 17.6215 13.3455C17.4615 14.0959 17.0897 14.7847 16.5502 15.3302L14.0019 17.8785C16.8583 22.902 21.0177 27.0614 26.0412 29.9178L28.5895 27.3695C29.1351 26.83 29.8238 26.4582 30.5742 26.2982C31.3246 26.1381 32.1051 26.1966 32.8233 26.4665C34.6438 27.1459 36.5353 27.6171 38.4617 27.8711C39.4364 28.0086 40.3266 28.4996 40.9629 29.2506C41.5993 30.0016 41.9374 30.9604 41.913 31.9444Z" stroke="white" stroke-width="2" stroke-linecap="round" stroke-linejoin="round"/>
</svg>
