<svg width="26" height="23" viewBox="0 0 26 23" fill="none" xmlns="http://www.w3.org/2000/svg">
<path d="M21.4078 10.4005H2.07984C1.80403 10.4005 1.53953 10.5101 1.3445 10.7051C1.14948 10.9001 1.03992 11.1646 1.03992 11.4404C1.03992 11.7162 1.14948 11.9807 1.3445 12.1758C1.53953 12.3708 1.80403 12.4803 2.07984 12.4803H21.4078L13.8226 20.0634C13.6273 20.2587 13.5176 20.5235 13.5176 20.7997C13.5176 21.0758 13.6273 21.3407 13.8226 21.536C14.0179 21.7312 14.2827 21.8409 14.5589 21.8409C14.835 21.8409 15.0999 21.7312 15.2951 21.536L24.6544 12.1767C24.7512 12.0801 24.8281 11.9653 24.8805 11.839C24.9329 11.7126 24.9599 11.5772 24.9599 11.4404C24.9599 11.3036 24.9329 11.1682 24.8805 11.0419C24.8281 10.9155 24.7512 10.8008 24.6544 10.7042L15.2951 1.34489C15.0999 1.14962 14.835 1.03992 14.5589 1.03992C14.2827 1.03992 14.0179 1.14962 13.8226 1.34489C13.6273 1.54016 13.5176 1.805 13.5176 2.08115C13.5176 2.3573 13.6273 2.62214 13.8226 2.81741L21.4078 10.4005Z" fill="white" stroke="#00040C"/>
</svg>
