<svg width="1041" height="1005" viewBox="0 0 1041 1005" fill="none" xmlns="http://www.w3.org/2000/svg">
<path d="M100.151 261.38H741.673C749.682 261.38 757.363 264.561 763.026 270.224C768.69 275.888 771.871 283.569 771.871 291.578V707.618C771.871 711.955 771.017 716.25 769.357 720.257C767.697 724.264 765.264 727.905 762.197 730.972C759.13 734.039 755.489 736.472 751.482 738.132C747.475 739.792 743.18 740.646 738.843 740.646H102.981C98.6439 740.646 94.349 739.792 90.3418 738.132C86.3346 736.472 82.6936 734.039 79.6266 730.972C76.5596 727.905 74.1267 724.264 72.4669 720.257C70.8071 716.25 69.9528 711.955 69.9528 707.618V291.578C69.9528 283.569 73.1344 275.888 78.7976 270.224C84.4609 264.561 92.142 261.38 100.151 261.38Z" fill="#EAEAEA" stroke="#2E353A" stroke-linecap="round" stroke-linejoin="round"/>
<path d="M334.945 308.559H295.435V334.511H334.945V308.559Z" fill="#2E353A"/>
<path d="M206.935 468.663H170.255V505.06H206.935V468.663Z" fill="#2E353A"/>
<path d="M368.992 340.738H332.03V377.134H368.992V340.738Z" fill="#2E353A"/>
<path d="M289.18 308.559H249.671V334.511H289.18V308.559Z" fill="#2E353A"/>
<path d="M412.181 340.738H375.218V377.134H412.181V340.738Z" fill="#2E353A"/>
<path d="M380.681 308.559H341.171V334.511H380.681V308.559Z" fill="#2E353A"/>
<path d="M184.774 426.012H115.264V462.409H184.774V426.012Z" fill="#2E353A"/>
<path d="M282.586 340.738H245.624V377.134H282.586V340.738Z" fill="#2E353A"/>
<path d="M164.029 468.663H115.264V505.06H164.029V468.663Z" fill="#2E353A"/>
<path d="M426.445 308.559H386.935V334.511H426.445V308.559Z" fill="#2E353A"/>
<path d="M196.18 340.738H159.217V377.134H196.18V340.738Z" fill="#2E353A"/>
<path d="M197.68 308.559H158.17V334.511H197.68V308.559Z" fill="#2E353A"/>
<path d="M243.444 308.559H203.935V334.511H243.444V308.559Z" fill="#2E353A"/>
<path d="M239.369 340.738H202.406V377.134H239.369V340.738Z" fill="#2E353A"/>
<path d="M325.775 340.738H288.812V377.134H325.775V340.738Z" fill="#2E353A"/>
<path d="M609.474 308.559H569.965V334.511H609.474V308.559Z" fill="#2E353A"/>
<path d="M655.21 308.559H615.701V334.511H655.21V308.559Z" fill="#2E353A"/>
<path d="M628.21 340.738H591.248V377.134H628.21V340.738Z" fill="#2E353A"/>
<path d="M671.427 340.738H634.465V377.134H671.427V340.738Z" fill="#2E353A"/>
<path d="M739.777 468.663H685.352V505.06H739.777V468.663Z" fill="#2E353A"/>
<path d="M700.975 308.559H661.465V334.511H700.975V308.559Z" fill="#2E353A"/>
<path d="M152.991 340.738H115.264V377.134H152.991V340.738Z" fill="#2E353A"/>
<path d="M472.209 308.559H432.7V334.511H472.209V308.559Z" fill="#2E353A"/>
<path d="M517.946 308.559H478.436V334.511H517.946V308.559Z" fill="#2E353A"/>
<path d="M498.615 340.738H461.653V377.134H498.615V340.738Z" fill="#2E353A"/>
<path d="M585.021 340.738H548.059V377.134H585.021V340.738Z" fill="#2E353A"/>
<path d="M455.398 340.738H418.436V377.134H455.398V340.738Z" fill="#2E353A"/>
<path d="M541.804 340.738H504.842V377.134H541.804V340.738Z" fill="#2E353A"/>
<path d="M563.71 308.559H524.2V334.511H563.71V308.559Z" fill="#2E353A"/>
<path d="M507.417 468.663H470.738V505.06H507.417V468.663Z" fill="#2E353A"/>
<path d="M699.871 426.012H663.192V462.409H699.871V426.012Z" fill="#2E353A"/>
<path d="M656.937 426.012H620.257V462.409H656.937V426.012Z" fill="#2E353A"/>
<path d="M679.097 468.663H642.418V505.06H679.097V468.663Z" fill="#2E353A"/>
<path d="M636.191 468.663H599.512V505.06H636.191V468.663Z" fill="#2E353A"/>
<path d="M550.323 468.663H513.644V505.06H550.323V468.663Z" fill="#2E353A"/>
<path d="M593.257 468.663H556.578V505.06H593.257V468.663Z" fill="#2E353A"/>
<path d="M614.003 426.012H577.323V462.409H614.003V426.012Z" fill="#2E353A"/>
<path d="M571.097 426.012H534.417V462.409H571.097V426.012Z" fill="#2E353A"/>
<path d="M739.805 308.559H707.23V334.511H739.805V308.559Z" fill="#2E353A"/>
<path d="M151.944 308.559H115.264V334.511H151.944V308.559Z" fill="#2E353A"/>
<path d="M739.805 511.286H115.264V549.126H739.805V511.286Z" fill="#2E353A"/>
<path d="M739.777 340.738H677.654V377.134H739.777V340.738Z" fill="#2E353A"/>
<path d="M739.777 426.012H706.097V462.409H739.777V426.012Z" fill="#2E353A"/>
<path d="M695.739 419.503H689.484V383.389H652.805V419.503H646.578V383.389H609.899V419.503H603.644V383.389H566.965V419.503H560.71V383.389H524.031V419.503H517.804V383.389H481.125V419.503H474.87V383.389H438.19V419.503H431.936V383.389H395.256V419.503H389.03V383.389H352.35V419.503H346.096V383.389H309.416V419.503H303.162V383.389H266.482V419.503H260.256V383.389H223.576V419.503H217.321V383.389H180.642V419.503H174.387V383.389H115.264V419.786H739.777V383.389H695.739V419.503Z" fill="#2E353A"/>
<path d="M399.388 426.012H362.709V462.409H399.388V426.012Z" fill="#2E353A"/>
<path d="M528.163 426.012H491.483V462.409H528.163V426.012Z" fill="#2E353A"/>
<path d="M313.548 426.012H276.869V462.409H313.548V426.012Z" fill="#2E353A"/>
<path d="M335.709 468.663H299.029V505.06H335.709V468.663Z" fill="#2E353A"/>
<path d="M356.454 426.012H319.775V462.409H356.454V426.012Z" fill="#2E353A"/>
<path d="M270.614 426.012H233.935V462.409H270.614V426.012Z" fill="#2E353A"/>
<path d="M249.869 468.663H213.189V505.06H249.869V468.663Z" fill="#2E353A"/>
<path d="M292.775 468.663H256.095V505.06H292.775V468.663Z" fill="#2E353A"/>
<path d="M442.323 426.012H405.643V462.409H442.323V426.012Z" fill="#2E353A"/>
<path d="M464.483 468.663H427.804V505.06H464.483V468.663Z" fill="#2E353A"/>
<path d="M485.228 426.012H448.549V462.409H485.228V426.012Z" fill="#2E353A"/>
<path d="M378.643 468.663H341.964V505.06H378.643V468.663Z" fill="#2E353A"/>
<path d="M421.549 468.663H384.869V505.06H421.549V468.663Z" fill="#2E353A"/>
<path d="M227.68 426.012H191.001V462.409H227.68V426.012Z" fill="#2E353A"/>
<path d="M811.947 1.0005H26.113C22.2592 1.00353 18.4579 1.89274 15.0026 3.5994C11.5474 5.30607 8.53098 7.78445 6.18649 10.843C3.84199 13.9015 2.23226 17.4582 1.48173 21.2381C0.731208 25.018 0.859987 28.92 1.85814 32.6422L59.3112 246.549C60.7431 251.888 63.8956 256.607 68.2804 259.974C72.6653 263.34 78.0378 265.167 83.5661 265.172H163.774V279.974H677.993V265.257H754.409C759.937 265.252 765.31 263.425 769.695 260.059C774.079 256.692 777.232 251.973 778.664 246.634L836.117 32.7271C837.129 29.0062 837.271 25.1025 836.532 21.318C835.793 17.5335 834.194 13.9697 831.857 10.9025C829.52 7.8352 826.509 5.34673 823.057 3.62968C819.604 1.91263 815.803 1.01303 811.947 1.0005Z" fill="#444A4F" stroke="#2E353A" stroke-linecap="round" stroke-linejoin="round"/>
<path d="M723.079 246.294H114.981L54.1603 27.4347H783.871L723.079 246.294Z" fill="#B1B1B1" stroke="#F0D100" stroke-linecap="round" stroke-linejoin="round"/>
<path d="M155.34 150.237V153.067H144.614V150.237H155.34Z" fill="#2E353A"/>
<path d="M168.699 150.237V153.067H157.944V150.237H168.699Z" fill="#2E353A"/>
<path d="M182.057 150.237V153.067H171.387V150.237H182.057Z" fill="#2E353A"/>
<path d="M195.387 150.237V153.067H184.661V150.237H195.387Z" fill="#2E353A"/>
<path d="M208.746 150.237V153.067H197.991V150.237H208.746Z" fill="#2E353A"/>
<path d="M222.104 150.237V153.067H211.35V150.237H222.104Z" fill="#2E353A"/>
<path d="M235.435 150.237V153.067H224.708V150.237H235.435Z" fill="#2E353A"/>
<path d="M248.652 165.152L236.821 133.624H239.652L251.482 165.152H248.652Z" fill="#2E353A"/>
<path d="M144.529 104.331V107.161H133.802V104.331H144.529Z" fill="#2E353A"/>
<path d="M157.887 104.331V107.161H147.161V104.331H157.887Z" fill="#2E353A"/>
<path d="M171.387 104.331V107.161H160.633V104.331H171.387Z" fill="#2E353A"/>
<path d="M184.604 104.331V107.161H173.85V104.331H184.604Z" fill="#2E353A"/>
<path d="M197.935 104.331V107.161H187.208V104.331H197.935Z" fill="#2E353A"/>
<path d="M220.52 104.331V107.161H209.765V104.331H220.52Z" fill="#2E353A"/>
<path d="M233.85 104.331V107.161H223.123V104.331H233.85Z" fill="#2E353A"/>
<path d="M247.208 104.331V107.161H236.482V104.331H247.208Z" fill="#2E353A"/>
<path d="M260.567 104.331V107.161H249.812V104.331H260.567Z" fill="#2E353A"/>
<path d="M273.897 104.331V107.161H263.171V104.331H273.897Z" fill="#2E353A"/>
<path d="M287.256 104.331V107.161H276.529V104.331H287.256Z" fill="#2E353A"/>
<path d="M300.614 104.331V107.161H289.86V104.331H300.614Z" fill="#2E353A"/>
<path d="M323.171 104.331V107.161H312.445V104.331H323.171Z" fill="#2E353A"/>
<path d="M336.53 104.331V107.161H325.775V104.331H336.53Z" fill="#2E353A"/>
<path d="M349.888 104.331V107.161H339.133V104.331H349.888Z" fill="#2E353A"/>
<path d="M372.332 104.331V107.161H361.605V104.331H372.332Z" fill="#2E353A"/>
<path d="M385.803 104.331V107.161H375.162V104.331H385.803Z" fill="#2E353A"/>
<path d="M399.162 104.331V107.161H388.407V104.331H399.162Z" fill="#2E353A"/>
<path d="M449.37 104.331V107.161H438.643V104.331H449.37Z" fill="#2E353A"/>
<path d="M462.728 104.331V107.161H451.974V104.331H462.728Z" fill="#2E353A"/>
<path d="M476.087 104.331V107.161H465.332V104.331H476.087Z" fill="#2E353A"/>
<path d="M489.417 104.331V107.161H478.691V104.331H489.417Z" fill="#2E353A"/>
<path d="M502.776 104.331V107.161H492.021V104.331H502.776Z" fill="#2E353A"/>
<path d="M525.332 104.331V107.161H514.606V104.331H525.332Z" fill="#2E353A"/>
<path d="M538.691 104.331V107.161H527.993V104.331H538.691Z" fill="#2E353A"/>
<path d="M552.05 104.331V107.161H541.295V104.331H552.05Z" fill="#2E353A"/>
<path d="M574.606 104.331V107.161H563.88V104.331H574.606Z" fill="#2E353A"/>
<path d="M597.191 104.331V107.161H586.436V104.331H597.191Z" fill="#2E353A"/>
<path d="M776.173 569.475L745.89 686.306L774.532 694.711L776.173 569.475Z" fill="white" stroke="#2E353A" stroke-linecap="round" stroke-linejoin="round"/>
<path d="M789.758 445.993C786.341 440.742 785.093 434.371 786.277 428.219C787.834 416.7 801.73 414.068 801.73 414.068C801.73 414.068 804.758 411.776 815.881 415.993C827.004 420.21 913.013 431.87 967.976 439.314C1022.94 446.757 1040.74 441.946 1039.98 460.823C1039.21 479.701 990.985 649.117 990.25 654.437C989.514 659.758 789.758 445.993 789.758 445.993Z" fill="white" stroke="#2E353A" stroke-miterlimit="10"/>
<path d="M1020.94 477.34L789.734 445.998L752.373 721.601L983.581 752.944L1020.94 477.34Z" fill="white" stroke="#2E353A" stroke-linecap="round" stroke-linejoin="round"/>
<path d="M977.967 532.315L991.41 534.154" stroke="#2E353A" stroke-width="0.5" stroke-linecap="round" stroke-linejoin="round"/>
<path d="M893.768 520.908L967.325 530.899" stroke="#2E353A" stroke-width="0.5" stroke-linecap="round" stroke-linejoin="round"/>
<path d="M804.617 508.823L883.127 519.465" stroke="#2E353A" stroke-width="0.5" stroke-linecap="round" stroke-linejoin="round"/>
<path d="M956.91 554.418L988.099 558.664" stroke="#2E353A" stroke-width="0.5" stroke-linecap="round" stroke-linejoin="round"/>
<path d="M801.305 533.333L925.013 550.088" stroke="#2E353A" stroke-width="0.5" stroke-linecap="round" stroke-linejoin="round"/>
<path d="M864.079 566.786L984.787 583.145" stroke="#2E353A" stroke-width="0.5" stroke-linecap="round" stroke-linejoin="round"/>
<path d="M797.966 557.815L851.655 565.117" stroke="#2E353A" stroke-width="0.5" stroke-linecap="round" stroke-linejoin="round"/>
<path d="M904.183 597.182L981.448 607.654" stroke="#2E353A" stroke-width="0.5" stroke-linecap="round" stroke-linejoin="round"/>
<path d="M838.607 588.268L895.325 595.966" stroke="#2E353A" stroke-width="0.5" stroke-linecap="round" stroke-linejoin="round"/>
<path d="M794.654 582.324L828.843 586.966" stroke="#2E353A" stroke-width="0.5" stroke-linecap="round" stroke-linejoin="round"/>
<path d="M950.485 628.399L978.136 632.135" stroke="#2E353A" stroke-width="0.5" stroke-linecap="round" stroke-linejoin="round"/>
<path d="M791.343 606.834L931.891 625.881" stroke="#2E353A" stroke-width="0.5" stroke-linecap="round" stroke-linejoin="round"/>
<path d="M896.655 646.032L974.825 656.645" stroke="#2E353A" stroke-width="0.5" stroke-linecap="round" stroke-linejoin="round"/>
<path d="M788.003 631.315L883.353 644.249" stroke="#2E353A" stroke-width="0.5" stroke-linecap="round" stroke-linejoin="round"/>
<path d="M920.796 674.277L971.485 681.126" stroke="#2E353A" stroke-width="0.5" stroke-linecap="round" stroke-linejoin="round"/>
<path d="M818.004 660.324L908.4 672.579" stroke="#2E353A" stroke-width="0.5" stroke-linecap="round" stroke-linejoin="round"/>
<path d="M784.692 655.824L807.362 658.881" stroke="#2E353A" stroke-width="0.5" stroke-linecap="round" stroke-linejoin="round"/>
<path d="M1020.96 477.352C1020.96 477.352 1024.92 438.918 1039.07 454.37" stroke="#2E353A" stroke-linecap="round" stroke-linejoin="round"/>
<path d="M942.561 773.419L942.306 797.844L928.07 777.749L870.928 585.55L885.419 581.22L942.561 773.419Z" fill="white" stroke="#2E353A" stroke-linecap="round" stroke-linejoin="round"/>
<path d="M879.747 589.433L871.841 591.739L927.986 784.238L935.893 781.932L879.747 589.433Z" fill="#949494" stroke="#2E353A" stroke-width="0.5" stroke-linecap="round" stroke-linejoin="round"/>
<path d="M942.561 773.476L928.098 777.778L942.306 797.844L942.561 773.476Z" stroke="#2E353A" stroke-linecap="round" stroke-linejoin="round"/>
<path d="M935.202 787.796L942.306 797.843L942.447 785.645L935.202 787.796Z" fill="#2E353A" stroke="#2E353A" stroke-linecap="round" stroke-linejoin="round"/>
<path d="M871.777 561.862C869.86 562.439 868.248 563.75 867.294 565.51C866.34 567.271 866.12 569.337 866.683 571.258L870.928 585.551L885.419 581.249L881.174 566.956C880.597 565.039 879.286 563.427 877.525 562.473C875.765 561.518 873.699 561.299 871.777 561.862Z" fill="white" stroke="#2E353A" stroke-linecap="round" stroke-linejoin="round"/>
<path d="M871.777 561.862C869.86 562.439 868.248 563.75 867.294 565.51C866.34 567.271 866.12 569.337 866.683 571.258L868.721 578.079L883.183 573.777L881.174 566.956C880.597 565.039 879.286 563.427 877.525 562.473C875.765 561.518 873.699 561.299 871.777 561.862Z" fill="#2E353A" stroke="#2E353A" stroke-linecap="round" stroke-linejoin="round"/>
<path d="M159.076 448.343C157.265 450.89 155.482 453.55 153.699 456.352" stroke="white" stroke-linecap="round" stroke-linejoin="round"/>
<path d="M188.68 414.267C180.794 421.577 173.498 429.497 166.859 437.956" stroke="white" stroke-linecap="round" stroke-linejoin="round"/>
<path d="M156.557 429.295C148.824 440.141 141.819 451.486 135.585 463.257" stroke="white" stroke-linecap="round" stroke-linejoin="round"/>
<path d="M356.171 491.531C354.388 494.079 352.577 496.739 350.794 499.513" stroke="white" stroke-linecap="round" stroke-linejoin="round"/>
<path d="M385.775 457.456C377.904 464.771 370.617 472.691 363.982 481.144" stroke="white" stroke-linecap="round" stroke-linejoin="round"/>
<path d="M353.681 472.428C345.952 483.336 338.947 494.737 332.709 506.56" stroke="white" stroke-linecap="round" stroke-linejoin="round"/>
<path d="M638.682 421.484C636.106 419.73 633.389 417.975 630.588 416.22" stroke="white" stroke-linecap="round" stroke-linejoin="round"/>
<path d="M673.21 450.579C665.767 442.827 657.734 435.664 649.182 429.154" stroke="white" stroke-linecap="round" stroke-linejoin="round"/>
<path d="M657.701 418.654C646.687 411.091 635.191 404.255 623.286 398.191" stroke="white" stroke-linecap="round" stroke-linejoin="round"/>
<path d="M347.567 596.956C346.096 607.598 343.888 622.428 341.681 631.23" stroke="#2E353A" stroke-linecap="round" stroke-linejoin="round"/>
<path d="M349.209 584.022C349.209 584.022 348.982 586.032 348.558 589.286" stroke="#2E353A" stroke-linecap="round" stroke-linejoin="round"/>
<path d="M356.765 614.221C353.675 624.53 349.893 634.619 345.445 644.419" stroke="#2E353A" stroke-linecap="round" stroke-linejoin="round"/>
<path d="M498.276 629.306C498.276 629.306 500.172 653.844 513.361 667.061" stroke="#2E353A" stroke-linecap="round" stroke-linejoin="round"/>
<path d="M496.379 653.843C496.379 653.843 502.04 670.825 513.361 678.381" stroke="#2E353A" stroke-linecap="round" stroke-linejoin="round"/>
<g style="mix-blend-mode:multiply">
<path d="M111.953 784.996C111.953 784.996 124.519 774.892 124.519 688.033C124.519 601.174 138.981 537.721 156.812 509.9C174.642 482.079 191.312 470.928 199.123 470.928C206.935 470.928 201.331 480.947 190.208 495.409C179.085 509.872 169.066 517.683 164.595 535.513C160.123 553.344 160.151 575.589 165.727 573.353C171.302 571.117 180.189 526.598 187.972 509.9C195.755 493.202 214.718 472.032 225.84 462.013C236.963 451.994 261.472 421.937 272.595 429.72C283.718 437.503 277.067 448.654 270.388 453.098C263.708 457.541 236.963 484.23 224.736 500.985C212.51 517.74 204.699 559.995 211.378 561.098C218.057 562.202 238.095 499.881 249.218 486.523C260.34 473.164 304.888 436.4 314.907 435.296C324.926 434.192 326.058 449.758 317.143 457.57C308.227 465.381 278.171 498.749 268.152 518.787C258.133 538.825 253.661 575.589 262.491 566.674C271.322 557.759 285.869 521.023 298.124 508.768C310.378 496.513 347.114 457.57 356.03 462.013C364.945 466.456 362.709 477.607 354.926 485.39C347.143 493.173 317.058 535.513 309.275 557.759C301.492 580.004 292.548 642.382 297.02 633.495C301.492 624.608 315.954 578.929 323.737 559.91C331.52 540.891 347.114 532.089 349.35 540.976C351.586 549.862 347.114 554.334 341.539 574.4C335.963 594.466 335.879 647.986 319.294 677.929C302.709 707.873 236.142 771.948 227.255 794.194C220.818 809.516 213.132 824.283 204.274 838.345" fill="#949494"/>
</g>
<g style="mix-blend-mode:multiply">
<path d="M730.494 792.524C730.494 792.524 717.616 774.892 717.616 688.033C717.616 601.174 703.126 537.721 685.324 509.9C667.522 482.079 650.795 470.928 643.012 470.928C635.229 470.928 640.776 480.947 651.927 495.409C663.078 509.872 673.069 517.683 677.399 535.513C681.729 553.344 681.871 575.589 676.295 573.353C670.72 571.117 661.833 526.598 654.022 509.9C646.21 493.202 627.305 472.032 616.182 462.013C605.059 451.994 580.55 421.937 569.399 429.72C558.248 437.503 564.955 448.654 571.634 453.098C578.314 457.541 605.031 484.23 617.286 500.985C629.54 517.74 637.323 559.995 630.644 561.098C623.965 562.202 604.012 499.881 592.889 486.579C581.767 473.277 537.191 436.456 527.172 435.352C517.153 434.249 516.049 449.815 524.964 457.626C533.88 465.438 563.936 498.806 573.955 518.843C583.974 538.881 588.418 575.646 579.616 566.73C570.814 557.815 556.238 521.079 544.012 508.824C531.785 496.57 495.021 457.626 486.106 462.07C477.191 466.513 479.426 477.664 487.209 485.447C494.993 493.23 525.078 535.57 532.861 557.815C540.644 580.061 549.559 642.438 545.115 633.551C540.672 624.665 526.181 578.985 518.398 559.966C510.615 540.947 495.021 532.145 492.785 541.032C490.549 549.919 495.021 554.391 500.568 574.457C506.115 594.523 506.228 648.042 522.842 677.986C539.455 707.929 604.125 766.373 613.04 788.647C621.955 810.92 638.088 846.015 638.088 846.015" fill="#949494"/>
</g>
<path d="M107.708 806.392C107.708 806.392 124.406 751.854 124.406 664.882C124.406 577.91 138.868 514.57 156.698 486.749C174.529 458.928 191.199 447.777 199.01 447.777C206.821 447.777 201.218 457.796 190.095 472.258C178.972 486.72 168.953 494.532 164.481 512.334C160.01 530.136 160.038 552.438 165.614 550.202C171.189 547.966 180.076 503.447 187.859 486.749C195.642 470.051 214.604 448.881 225.727 438.862C236.85 428.843 261.359 398.786 272.482 406.569C283.605 414.352 276.954 425.503 270.274 429.947C263.595 434.39 236.85 461.079 224.623 477.834C212.397 494.588 204.585 536.843 211.265 537.947C217.944 539.051 237.982 476.73 249.105 463.343C260.227 449.956 304.775 413.248 314.794 412.145C324.812 411.041 325.945 426.607 317.029 434.418C308.114 442.23 278.057 475.598 268.039 495.636C258.02 515.673 253.548 552.438 262.378 543.523C271.208 534.607 285.756 497.871 298.01 485.617C310.265 473.362 347.001 434.418 355.916 438.862C364.831 443.305 362.596 454.456 354.813 462.239C347.03 470.022 316.944 512.334 309.161 534.607C301.378 556.881 292.435 619.23 296.907 610.315C301.378 601.4 315.841 555.777 323.624 536.73C331.407 517.683 347.001 508.881 349.237 517.796C351.473 526.711 347.001 531.155 341.426 551.192C335.85 571.23 335.765 624.778 319.18 654.75C302.595 684.721 237.897 766.09 228.982 788.363C220.067 810.637 200.029 859.628 200.029 859.628" fill="#F0F0F0"/>
<path d="M107.708 806.392C107.708 806.392 124.406 751.854 124.406 664.882C124.406 577.91 138.868 514.57 156.698 486.749C174.529 458.928 191.199 447.777 199.01 447.777C206.821 447.777 201.218 457.796 190.095 472.258C178.972 486.72 168.953 494.532 164.481 512.334C160.01 530.136 160.038 552.438 165.614 550.202C171.189 547.966 180.076 503.447 187.859 486.749C195.642 470.051 214.604 448.881 225.727 438.862C236.85 428.843 261.359 398.786 272.482 406.569C283.605 414.352 276.954 425.503 270.274 429.947C263.595 434.39 236.85 461.079 224.623 477.834C212.397 494.588 204.585 536.843 211.265 537.947C217.944 539.051 237.982 476.73 249.105 463.343C260.227 449.956 304.775 413.248 314.794 412.145C324.812 411.041 325.945 426.607 317.029 434.418C308.114 442.23 278.057 475.598 268.039 495.636C258.02 515.673 253.548 552.438 262.378 543.523C271.208 534.607 285.756 497.871 298.01 485.617C310.265 473.362 347.001 434.418 355.916 438.862C364.831 443.305 362.596 454.456 354.813 462.239C347.03 470.022 316.944 512.334 309.161 534.607C301.378 556.881 292.435 619.23 296.907 610.315C301.378 601.4 315.841 555.777 323.624 536.73C331.407 517.683 347.001 508.881 349.237 517.796C351.473 526.711 347.001 531.155 341.426 551.192C335.85 571.23 335.765 624.778 319.18 654.75C302.595 684.721 237.897 766.09 228.982 788.363C220.067 810.637 200.029 859.628 200.029 859.628" stroke="#2E353A" stroke-linecap="round" stroke-linejoin="round"/>
<path d="M734.286 806.392C734.286 806.392 717.588 751.854 717.588 664.882C717.588 577.91 703.097 514.57 685.295 486.749C667.493 458.928 650.767 447.777 642.984 447.777C635.201 447.777 640.748 457.796 651.899 472.258C663.05 486.72 673.041 494.532 677.371 512.334C681.701 530.136 681.843 552.438 676.267 550.202C670.692 547.966 661.805 503.447 653.993 486.749C646.182 470.051 627.276 448.881 616.154 438.862C605.031 428.843 580.521 398.786 569.37 406.569C558.219 414.352 564.927 425.503 571.606 429.947C578.285 434.39 605.003 461.079 617.257 477.834C629.512 494.588 637.295 536.843 630.616 537.947C623.937 539.051 603.899 476.73 592.776 463.343C581.653 449.956 537.078 413.248 527.059 412.145C517.04 411.041 515.936 426.607 524.851 434.418C533.766 442.23 563.823 475.598 573.842 495.636C583.861 515.673 588.304 552.438 579.502 543.523C570.701 534.607 556.125 497.871 543.898 485.617C531.672 473.362 494.908 434.418 485.993 438.862C477.077 443.305 479.313 454.456 487.096 462.239C494.879 470.022 524.964 512.334 532.747 534.607C540.531 556.881 549.446 619.23 545.002 610.315C540.559 601.4 526.068 555.777 518.285 536.73C510.502 517.683 494.908 508.881 492.672 517.796C490.436 526.711 494.908 531.155 500.455 551.192C506.002 571.23 506.115 624.778 522.729 654.75C539.342 684.721 604.012 766.09 612.927 788.363C621.842 810.637 641.88 859.628 641.88 859.628" fill="#F0F0F0"/>
<path d="M734.286 806.392C734.286 806.392 717.588 751.854 717.588 664.882C717.588 577.91 703.097 514.57 685.295 486.749C667.493 458.928 650.767 447.777 642.984 447.777C635.201 447.777 640.748 457.796 651.899 472.258C663.05 486.72 673.041 494.532 677.371 512.334C681.701 530.136 681.843 552.438 676.267 550.202C670.692 547.966 661.805 503.447 653.993 486.749C646.182 470.051 627.276 448.881 616.154 438.862C605.031 428.843 580.521 398.786 569.37 406.569C558.219 414.352 564.927 425.503 571.606 429.947C578.285 434.39 605.003 461.079 617.257 477.834C629.512 494.588 637.295 536.843 630.616 537.947C623.937 539.051 603.899 476.73 592.776 463.343C581.653 449.956 537.078 413.248 527.059 412.145C517.04 411.041 515.936 426.607 524.851 434.418C533.766 442.23 563.823 475.598 573.842 495.636C583.861 515.673 588.304 552.438 579.502 543.523C570.701 534.607 556.125 497.871 543.898 485.617C531.672 473.362 494.908 434.418 485.993 438.862C477.077 443.305 479.313 454.456 487.096 462.239C494.879 470.022 524.964 512.334 532.747 534.607C540.531 556.881 549.446 619.23 545.002 610.315C540.559 601.4 526.068 555.777 518.285 536.73C510.502 517.683 494.908 508.881 492.672 517.796C490.436 526.711 494.908 531.155 500.455 551.192C506.002 571.23 506.115 624.778 522.729 654.75C539.342 684.721 604.012 766.09 612.927 788.363C621.842 810.637 641.88 859.628 641.88 859.628" stroke="#2E353A" stroke-linecap="round" stroke-linejoin="round"/>
<path d="M37.2356 976.204H207.048C209.255 967.713 212.029 958.204 215.538 947.902C228.897 907.883 272.142 857.845 272.142 857.845C241.148 830.547 204.727 810.119 165.274 797.901C100.179 777.863 52.5187 783.75 52.5187 783.75C61.2924 819.924 62.2573 857.552 55.3489 894.128C46.8583 935.336 41.1979 961.402 37.2356 976.204Z" fill="#2B2500" stroke="#F0D100" stroke-linecap="round" stroke-linejoin="round"/>
<path d="M633.842 976.204H810.277C804.617 961.544 792.39 929.704 780.164 897.864C763.466 854.505 770.145 796.147 763.466 796.147C756.786 796.147 681.758 791.137 645.078 802.798C608.399 814.458 566.682 847.826 566.682 847.826C585.566 869.769 601.801 893.859 615.05 919.6C623.566 937.644 629.876 956.649 633.842 976.204Z" fill="#2B2500" stroke="#F0D100" stroke-linecap="round" stroke-linejoin="round"/>
<path d="M143.312 818.279C142.095 813.467 123.981 820.713 123.981 820.713C123.981 820.713 130.038 797.788 120.387 797.788C110.736 797.788 109.519 814.769 109.519 814.769C109.519 814.769 91.4057 807.552 91.4057 818.392C91.4057 829.232 103.462 829.033 103.462 829.033C103.462 829.033 88.9718 847.147 99.8397 850.741C110.708 854.335 117.925 841.09 117.925 841.09C117.925 841.09 125.17 853.175 134.906 848.335C144.642 843.496 137.312 832.656 137.312 832.656C137.312 832.656 144.5 823.118 143.312 818.279ZM119.17 836.392C118.259 836.189 117.424 835.733 116.761 835.077C116.097 834.42 115.633 833.589 115.422 832.681C115.21 831.772 115.259 830.821 115.564 829.939C115.869 829.057 116.417 828.279 117.145 827.695C117.873 827.111 118.751 826.744 119.678 826.637C120.605 826.53 121.543 826.687 122.385 827.09C123.227 827.493 123.937 828.126 124.435 828.916C124.933 829.705 125.197 830.619 125.198 831.552C124.994 832.973 124.258 834.263 123.139 835.162C122.02 836.06 120.601 836.5 119.17 836.392ZM169.859 953.562C168.642 948.751 150.529 955.996 150.529 955.996C150.529 955.996 156.585 933.072 146.906 933.072C137.227 933.072 136.066 950.053 136.066 950.053C136.066 950.053 117.953 942.808 117.953 953.647C117.953 964.487 130.038 964.515 130.038 964.515C130.038 964.515 115.547 982.628 126.415 986.251C137.283 989.874 144.5 976.572 144.5 976.572C144.5 976.572 151.746 988.657 161.482 983.817C171.217 978.978 163.887 968.138 163.887 968.138C163.887 968.138 171.048 958.26 169.859 953.562ZM145.717 971.676C144.806 971.473 143.971 971.017 143.308 970.36C142.645 969.704 142.181 968.873 141.969 967.964C141.757 967.055 141.807 966.105 142.112 965.223C142.417 964.341 142.964 963.563 143.692 962.979C144.42 962.394 145.298 962.028 146.225 961.921C147.152 961.814 148.091 961.971 148.932 962.374C149.774 962.777 150.485 963.41 150.982 964.199C151.48 964.989 151.745 965.903 151.746 966.836C151.541 968.246 150.8 969.522 149.676 970.397C148.553 971.273 147.134 971.68 145.717 971.534V971.676ZM63.6414 971.676C62.4245 966.836 44.3395 974.081 44.3395 974.081C44.3395 974.081 50.3678 951.157 40.7168 951.157C31.0658 951.157 29.8488 968.138 29.8488 968.138C29.8488 968.138 11.7355 960.893 11.7355 971.76C11.7355 982.628 23.8205 982.628 23.8205 982.628C23.8205 982.628 9.32986 1000.71 20.1978 1004.34C31.0658 1007.96 38.2828 994.685 38.2828 994.685C38.2828 994.685 45.5281 1006.74 55.264 1001.93C64.9999 997.119 57.698 986.251 57.698 986.251C57.698 986.251 64.8584 976.345 63.6697 971.534L63.6414 971.676ZM39.4998 989.761C38.5877 989.558 37.7515 989.101 37.088 988.443C36.4244 987.785 35.9606 986.953 35.7499 986.042C35.5393 985.132 35.5905 984.18 35.8977 983.298C36.2049 982.415 36.7554 981.638 37.4858 981.055C38.2161 980.472 39.0965 980.108 40.0251 980.004C40.9538 979.9 41.8929 980.061 42.7339 980.468C43.575 980.875 44.2836 981.512 44.7781 982.305C45.2725 983.098 45.5325 984.015 45.5281 984.949C45.3173 986.348 44.5772 987.613 43.4606 988.482C42.3439 989.351 40.9362 989.758 39.5281 989.619L39.4998 989.761ZM195.161 877.543H208.435C218.086 877.543 224.114 888.411 224.114 888.411C203.623 894.298 195.189 877.402 195.189 877.402L195.161 877.543ZM181.887 971.676H195.161C204.812 971.676 210.84 982.544 210.84 982.544C190.35 988.43 181.916 971.534 181.916 971.534L181.887 971.676ZM66.0754 953.562H79.3491C89 953.562 95.0284 964.43 95.0284 964.43C74.5094 970.317 66.0754 953.562 66.0754 953.562ZM130.236 868.402L137.991 879.185C143.651 887.053 138.302 898.26 138.302 898.26C121.434 884.986 130.236 868.26 130.236 868.26V868.402ZM63.8396 904.458L69.8962 892.656C74.3396 884.166 86.7359 883.656 86.7359 883.656C82.5755 904.656 63.8396 904.458 63.8396 904.458Z" fill="white"/>
<path d="M711.645 841.203C710.428 836.392 692.314 843.637 692.314 843.637C692.314 843.637 698.371 820.713 688.72 820.713C679.069 820.713 677.852 837.694 677.852 837.694C677.852 837.694 659.739 830.477 659.739 841.316C659.739 852.156 671.824 852.184 671.824 852.184C671.824 852.184 657.333 870.298 668.201 873.92C679.069 877.543 686.286 864.241 686.286 864.241C686.286 864.241 693.531 876.326 703.267 871.486C713.003 866.647 705.673 855.807 705.673 855.807C705.673 855.807 712.833 846.015 711.645 841.203ZM687.503 859.317C686.592 859.114 685.757 858.658 685.094 858.001C684.43 857.345 683.966 856.514 683.755 855.605C683.543 854.696 683.592 853.746 683.897 852.864C684.202 851.982 684.75 851.204 685.478 850.62C686.206 850.035 687.084 849.669 688.011 849.562C688.938 849.455 689.876 849.612 690.718 850.015C691.56 850.418 692.27 851.051 692.768 851.84C693.266 852.63 693.53 853.544 693.531 854.477C693.361 855.912 692.633 857.224 691.506 858.129C690.379 859.034 688.941 859.46 687.503 859.317ZM768.334 935.336C767.145 930.496 749.032 937.741 749.032 937.741C749.032 937.741 755.06 914.817 745.409 914.817C735.758 914.817 734.569 931.798 734.569 931.798C734.569 931.798 716.456 924.553 716.456 935.421C716.456 946.289 728.513 946.289 728.513 946.289C728.513 946.289 714.05 964.374 724.918 967.996C735.786 971.619 743.003 958.345 743.003 958.345C743.003 958.345 750.249 970.402 759.985 965.591C769.72 960.779 762.39 949.911 762.39 949.911C762.39 949.911 769.551 940.147 768.334 935.336ZM744.22 953.562C743.308 953.359 742.472 952.903 741.808 952.245C741.145 951.587 740.681 950.754 740.47 949.844C740.26 948.934 740.311 947.982 740.618 947.1C740.925 946.217 741.476 945.439 742.206 944.857C742.937 944.274 743.817 943.909 744.746 943.805C745.674 943.702 746.613 943.863 747.454 944.27C748.295 944.677 749.004 945.314 749.499 946.107C749.993 946.9 750.253 947.816 750.249 948.751C750.071 950.181 749.341 951.485 748.214 952.385C747.088 953.284 745.654 953.706 744.22 953.562ZM708.022 971.676C706.805 966.836 688.72 974.081 688.72 974.081C688.72 974.081 694.748 951.157 685.097 951.157C675.446 951.157 674.229 968.138 674.229 968.138C674.229 968.138 656.116 960.892 656.116 971.76C656.116 982.628 668.201 982.628 668.201 982.628C668.201 982.628 653.71 1000.71 664.578 1004.34C675.446 1007.96 682.663 994.685 682.663 994.685C682.663 994.685 689.909 1006.74 699.645 1001.93C709.38 997.119 702.079 986.251 702.079 986.251C702.079 986.251 709.126 976.345 708.022 971.534V971.676ZM683.88 989.761C682.968 989.558 682.132 989.101 681.468 988.443C680.805 987.785 680.341 986.953 680.131 986.042C679.92 985.132 679.971 984.18 680.278 983.298C680.585 982.415 681.136 981.638 681.866 981.055C682.597 980.472 683.477 980.107 684.406 980.004C685.334 979.9 686.273 980.061 687.114 980.468C687.956 980.875 688.664 981.512 689.159 982.305C689.653 983.098 689.913 984.015 689.909 984.949C689.698 986.354 688.954 987.623 687.831 988.493C686.708 989.362 685.293 989.766 683.88 989.619V989.761ZM763.522 900.468H776.796C786.447 900.468 792.475 911.336 792.475 911.336C771.956 917.222 763.522 900.326 763.522 900.326V900.468ZM621.135 969.128H634.408C644.059 969.128 650.088 979.968 650.088 979.968C629.569 986.025 621.135 969.128 621.135 969.128ZM698.569 891.298L706.324 902.081C711.984 909.949 706.635 921.156 706.635 921.156C689.767 907.911 698.569 891.298 698.569 891.298ZM777.051 958.77L784.777 969.553C790.438 977.393 785.088 988.629 785.088 988.629C768.22 975.468 777.051 958.77 777.051 958.77ZM632.059 927.383L638.116 915.581C642.559 907.09 655.097 906.581 655.097 906.581C650.909 927.581 632.031 927.383 632.031 927.383H632.059Z" fill="white"/>
</svg>
