<svg width="40" height="28" viewBox="0 0 40 28" fill="none" xmlns="http://www.w3.org/2000/svg">
<path fill-rule="evenodd" clip-rule="evenodd" d="M38.3808 4.37229C37.93 2.65119 36.6017 1.2959 34.9149 0.835935C31.8582 0 19.6 0 19.6 0C19.6 0 7.34176 0 4.28483 0.835935C2.59811 1.2959 1.26977 2.65119 0.818968 4.37229C0 7.49158 0 14 0 14C0 14 0 20.5082 0.818968 23.6277C1.26977 25.3488 2.59811 26.7041 4.28483 27.1643C7.34176 28 19.6 28 19.6 28C19.6 28 31.8582 28 34.9149 27.1643C36.6017 26.7041 37.93 25.3488 38.3808 23.6277C39.2 20.5082 39.2 14 39.2 14C39.2 14 39.2 7.49158 38.3808 4.37229Z" fill="#7D7D7D"/>
</svg>
