<svg width="1600" height="900" viewBox="0 0 1600 900" fill="none" xmlns="http://www.w3.org/2000/svg">
<g clip-path="url(#clip0_22_23)">
<path d="M1557.95 338C1557.95 382.482 1557.89 426.465 1557.97 470.447C1558.04 506.095 1543.93 534.347 1514.01 554.016C1498.94 563.929 1481.87 568.416 1463.87 568.605C1442.88 568.826 1421.88 568.902 1400.9 568.4C1355.38 567.311 1314.27 530.11 1311.24 480.436C1311.04 477.113 1310.91 473.779 1310.91 470.45C1310.89 394.647 1311.01 318.844 1310.84 243.041C1310.77 209.742 1323.45 182.858 1350.31 163.165C1364.79 152.545 1381.2 146.012 1399.39 145.743C1422.7 145.398 1446.04 145.22 1469.35 145.848C1505.94 146.833 1540 172.514 1552.09 207.238C1556.08 218.688 1557.92 230.464 1557.94 242.537C1557.98 274.191 1557.95 305.846 1557.95 338ZM1392.15 460.498C1392.16 464.83 1392.1 469.163 1392.17 473.494C1392.31 482.605 1396.99 487.195 1406.2 487.209C1424.86 487.237 1443.52 487.232 1462.18 487.211C1472.36 487.199 1477.35 482.412 1477.36 472.32C1477.4 395.505 1477.4 318.69 1477.36 241.875C1477.35 230.86 1472.05 225.758 1461 225.745C1443.67 225.725 1426.34 225.733 1409.01 225.743C1396.49 225.751 1392.16 230.071 1392.16 242.55C1392.15 314.867 1392.15 387.183 1392.15 460.498Z" fill="black"/>
<path d="M83.9999 567.751C70.1966 567.751 56.8933 567.751 43.0462 567.751C42.8966 565.491 42.6595 563.578 42.6593 561.665C42.6423 424.197 42.667 286.728 42.5454 149.259C42.5414 144.657 43.7502 143.351 48.3762 143.396C71.8686 143.625 95.3684 143.233 118.858 143.577C143.817 143.942 167.863 148.529 189.307 162.201C219.193 181.254 237.629 208.147 244.139 243.163C250.238 275.974 243.488 305.958 224.708 333.313C222.439 336.617 223.718 338.112 226.025 340.244C247.551 360.137 260.785 384.733 265.758 413.457C272.161 450.439 263.783 484.289 241.541 514.439C225.202 536.589 203.792 552.297 177.646 561.075C165.174 565.262 152.322 567.93 138.987 567.797C120.827 567.615 102.663 567.751 83.9999 567.751ZM124.32 404.501C124.32 430.473 124.383 456.445 124.248 482.416C124.229 486.056 125.182 487.658 128.999 487.31C133.301 486.918 137.655 487.046 141.947 486.587C170.379 483.547 191.396 454.996 185.774 427.035C180.303 399.827 157.35 382.65 127.316 385.136C126.232 385.226 124.542 387.293 124.46 388.526C124.13 393.499 124.321 398.506 124.32 404.501ZM153.506 293.009C167.183 279.533 169.732 260.423 160.107 244.165C152.861 231.925 135.028 222.984 124.75 226.329C124.75 252.126 124.75 277.839 124.75 303.757C135.827 303.986 145.023 300.44 153.506 293.009Z" fill="black"/>
<path d="M508.759 167.267C512.634 187.632 516.426 207.574 520.223 227.516C525.917 257.429 531.595 287.345 537.316 317.253C542.911 346.506 548.568 375.747 554.166 404.999C561.453 443.077 568.692 481.164 575.988 519.24C578.712 533.454 581.554 547.647 584.304 561.856C584.641 563.601 584.739 565.392 585.017 567.753C582.663 567.753 580.876 567.753 579.09 567.753C555.931 567.753 532.769 567.582 509.614 567.884C504.404 567.952 502.593 566.408 501.663 561.288C496.996 535.589 491.884 509.972 486.826 483.799C485.224 483.71 483.626 483.547 482.029 483.546C456.537 483.529 431.045 483.611 405.554 483.452C401.701 483.428 400.187 484.517 399.253 488.417C393.212 513.641 386.792 538.774 380.633 563.971C379.964 566.709 378.943 567.822 376.007 567.81C350.182 567.709 324.357 567.749 298.532 567.734C297.884 567.734 297.236 567.578 295.935 567.411C298.108 558.576 300.21 549.928 302.361 541.293C314.017 494.498 325.658 447.698 337.358 400.914C348.009 358.318 358.738 315.743 369.415 273.154C379.889 231.376 390.404 189.609 400.687 147.785C401.586 144.127 403.185 143.372 406.477 143.452C420.783 143.797 435.093 144.172 449.401 144.16C465.875 144.146 482.352 143.848 498.82 143.419C502.906 143.313 504.719 144.329 505.208 148.712C505.887 154.81 507.478 160.806 508.759 167.267ZM446.96 296.379C438.244 331.446 429.529 366.513 420.719 401.957C437.78 401.957 454.121 401.957 470.998 401.957C463.844 364.407 456.778 327.318 449.712 290.229C449.394 290.197 449.075 290.165 448.757 290.133C448.204 291.948 447.65 293.763 446.96 296.379Z" fill="black"/>
<path d="M613.197 557.921C613.197 421.618 613.196 285.804 613.197 149.99C613.197 143.502 613.2 143.497 619.718 143.497C642.714 143.494 665.711 143.496 688.708 143.496C690.352 143.496 691.996 143.496 694.296 143.496C694.296 257.737 694.296 371.614 694.296 486.072C742.351 486.072 789.753 486.072 837.512 486.072C837.512 513.386 837.512 540.12 837.512 567.755C835.475 567.755 833.393 567.755 831.312 567.755C761.655 567.755 691.998 567.755 622.342 567.755C613.197 567.755 613.197 567.755 613.197 557.921Z" fill="black"/>
<path d="M946.947 145.557C947.018 284.832 947.01 423.654 947.11 562.477C947.113 566.576 946.014 567.883 941.792 567.848C918.129 567.653 894.463 567.753 870.798 567.753C869.487 567.753 868.176 567.753 866.282 567.753C866.148 565.548 865.93 563.634 865.93 561.72C865.914 424.23 865.937 286.74 865.822 149.251C865.818 144.716 866.908 143.329 871.614 143.38C894.943 143.635 918.276 143.462 941.607 143.566C943.369 143.574 945.126 144.569 946.947 145.557Z" fill="black"/>
<path d="M1021 155.637C1049.5 155.637 1077.49 155.735 1105.49 155.532C1109.65 155.501 1111.75 156.928 1113.45 160.541C1127.9 191.241 1142.47 221.89 1157.07 252.523C1171.02 281.804 1185.05 311.048 1199.07 340.302C1199.47 341.149 1200.02 341.925 1201.22 343.918C1229.55 284.986 1257.44 226.962 1285.67 168.252C1283.66 168.062 1282.29 167.819 1280.92 167.818C1253.42 167.795 1225.92 167.86 1198.43 167.723C1195.06 167.706 1193.45 168.893 1192.05 171.863C1184.28 188.425 1176.3 204.888 1168.37 221.375C1167.89 222.378 1167.22 223.294 1166.17 225.026C1163.66 220.584 1161.28 216.818 1159.43 212.807C1158.87 211.596 1159.41 209.534 1160.06 208.156C1168.21 191.029 1176.37 173.911 1184.85 156.949C1185.57 155.504 1188.55 154.464 1190.49 154.455C1222.65 154.304 1254.81 154.348 1286.98 154.349C1293.43 154.349 1299.88 154.349 1307.48 154.349C1272.11 227.599 1237.18 299.927 1201.69 373.445C1198.24 366.6 1195.37 361.033 1192.62 355.41C1168.05 305.215 1143.49 255.011 1118.94 204.805C1113.6 193.894 1108.28 182.973 1103.01 172.033C1101.8 169.528 1100.63 167.698 1097.19 167.716C1069.2 167.869 1041.2 167.802 1013.2 167.819C1012.42 167.819 1011.63 168.008 1010.03 168.214C1013.76 176.08 1017.24 183.534 1020.81 190.945C1035.6 221.668 1050.42 252.38 1065.23 283.091C1081.06 315.903 1096.9 348.71 1112.74 381.518C1126.41 409.827 1140.13 438.109 1153.62 466.501C1154.51 468.36 1154.39 471.429 1153.46 473.309C1138.25 504.189 1122.86 534.984 1107.35 565.721C1106.63 567.152 1104.48 568.765 1102.98 568.771C1064.82 568.935 1026.66 568.898 988.498 568.872C987.889 568.872 987.281 568.581 985.837 568.214C1017.84 502.143 1049.67 436.421 1081.97 369.727C1086.13 378.413 1089.84 384.992 1084.69 394.429C1071.85 417.916 1060.36 442.14 1048.4 466.103C1034.74 493.492 1021.14 520.918 1007.52 548.333C1006.74 549.923 1006.05 551.564 1004.96 553.956C1007.24 554.145 1008.78 554.384 1010.32 554.386C1038.32 554.408 1066.32 554.346 1094.31 554.476C1097.62 554.492 1099.29 553.497 1100.76 550.465C1113.26 524.722 1125.92 499.057 1138.65 473.427C1140.38 469.946 1140.19 466.935 1138.54 463.525C1108.91 402.467 1079.37 341.37 1049.78 280.295C1030.42 240.331 1011.01 200.388 991.64 160.428C991.071 159.254 990.667 158 989.733 155.637C1000.42 155.637 1010.46 155.637 1021 155.637Z" fill="#F0D100"/>
<path d="M534.537 650C534.537 677.749 534.537 704.998 534.537 732.247C534.148 732.364 533.759 732.481 533.37 732.598C515.263 706.895 497.156 681.191 479.048 655.487C478.665 655.601 478.281 655.714 477.898 655.827C477.898 679.651 477.898 703.476 477.898 727.665C474.021 727.665 470.793 727.665 467.281 727.665C467.281 692.4 467.281 657.23 467.281 622.06C467.6 621.914 467.919 621.768 468.238 621.622C486.44 647.459 504.642 673.296 522.844 699.133C523.2 699.04 523.555 698.946 523.911 698.852C523.911 674.855 523.911 650.858 523.911 626.555C527.641 626.555 530.719 626.555 534.537 626.555C534.537 634.278 534.537 641.889 534.537 650Z" fill="black"/>
<path d="M1125.13 669.045C1119.64 680.216 1110.72 686.13 1098.01 688.093C1103.53 695.14 1108.52 701.493 1113.48 707.864C1118.46 714.254 1123.41 720.662 1129.1 728.002C1124.21 728.002 1120.28 728.308 1116.45 727.846C1115 727.671 1113.5 725.926 1112.46 724.56C1105.04 714.743 1097.74 704.832 1090.37 694.966C1084.32 686.861 1084.31 686.871 1073.24 688.477C1073.24 701.434 1073.24 714.494 1073.24 727.787C1069.55 727.787 1066.43 727.787 1062.86 727.787C1062.76 726.302 1062.57 724.876 1062.57 723.449C1062.55 692.809 1062.63 662.169 1062.47 631.53C1062.45 627.437 1063.52 625.995 1067.77 626.155C1077.58 626.526 1087.46 625.759 1097.21 626.655C1120.42 628.79 1131.96 646.464 1125.13 669.045ZM1111.15 671.644C1117.58 664.384 1118.53 656.101 1114.81 647.496C1111.1 638.939 1103.61 636.266 1094.83 636.289C1088.84 636.305 1082.85 636.395 1076.87 636.24C1074.06 636.167 1073.02 637.179 1073.07 639.982C1073.2 646.131 1073.11 652.285 1073.11 658.437C1073.11 664.688 1073.11 670.94 1073.11 677.043C1074.27 677.392 1074.73 677.649 1075.19 677.652C1082.18 677.686 1089.16 677.673 1096.14 677.7C1101.7 677.721 1106.6 676.087 1111.15 671.644Z" fill="black"/>
<path d="M1514.55 646.957C1512.98 645.949 1511.8 644.968 1510.67 643.933C1507.91 641.406 1505.59 637.851 1502.34 636.507C1493.78 632.96 1484.71 632.952 1475.97 636.151C1469.96 638.353 1465.99 642.7 1465.56 649.508C1465.14 655.978 1467.63 661.359 1473.49 663.844C1481.86 667.392 1490.66 669.922 1499.27 672.919C1503.66 674.447 1508.12 675.81 1512.38 677.659C1521.84 681.771 1527.71 688.706 1528.07 699.407C1528.43 710.16 1524.15 718.827 1514.67 723.883C1498.23 732.65 1481.32 732.292 1464.91 723.79C1457.66 720.031 1453.64 713.254 1451.98 704.215C1455.66 704.215 1459.06 704.113 1462.44 704.294C1463.19 704.334 1464.33 705.248 1464.54 705.974C1467.31 715.802 1475.1 718.726 1483.91 719.783C1493.85 720.975 1503.8 720.734 1511.8 713.622C1520.47 705.92 1519.06 693.261 1508.51 688.386C1499.83 684.376 1490.29 682.278 1481.26 678.96C1475.53 676.852 1469.57 674.787 1464.55 671.439C1450.76 662.235 1450.86 642.524 1464.31 632.267C1476.53 622.943 1499.43 622.158 1512.1 630.77C1517.6 634.506 1521.51 639.435 1522.8 646.958C1519.87 646.958 1517.42 646.958 1514.55 646.957Z" fill="black"/>
<path d="M1269.72 644.003C1269.72 652.005 1269.92 659.511 1269.64 667.001C1269.5 670.905 1270.64 672.237 1274.69 672.159C1287.35 671.916 1300.02 672.062 1312.68 672.079C1314.3 672.082 1315.93 672.216 1317.82 672.301C1317.82 675.562 1317.82 678.49 1317.82 681.971C1302.13 681.971 1286.39 681.971 1270.07 681.971C1269.93 684.382 1269.75 686.29 1269.74 688.198C1269.7 696.363 1269.98 704.541 1269.62 712.69C1269.42 717.271 1271.09 718.292 1275.36 718.208C1288.18 717.953 1301.02 718.116 1313.85 718.117C1315.5 718.117 1317.15 718.117 1319.25 718.117C1319.25 721.472 1319.25 724.504 1319.25 727.802C1299.38 727.802 1279.62 727.802 1259.39 727.802C1259.29 726.278 1259.1 724.849 1259.1 723.419C1259.09 692.756 1259.08 662.093 1259.1 631.43C1259.11 629.072 1258.27 626.185 1262.4 626.198C1281.21 626.255 1300.02 626.223 1319.26 626.223C1319.26 629.597 1319.26 632.634 1319.26 636.177C1302.9 636.177 1286.64 636.177 1269.72 636.177C1269.72 638.939 1269.72 641.22 1269.72 644.003Z" fill="black"/>
<path d="M864.58 722.389C855.956 716.064 851.48 707.741 851.35 697.507C851.063 675.031 851.23 652.549 851.011 630.072C850.97 625.833 853.384 626.12 856.163 626.206C858.916 626.292 861.806 625.436 861.763 630.151C861.577 650.298 861.682 670.449 861.686 690.598C861.69 711.165 872.712 720.938 893.31 718.648C908.973 716.906 916.289 708.748 916.321 692.846C916.36 672.697 916.332 652.547 916.332 632.398C916.333 630.598 916.333 628.798 916.333 626.61C919.877 626.61 922.934 626.61 926.614 626.61C926.722 628.08 926.939 629.659 926.941 631.239C926.962 651.888 927.046 672.538 926.921 693.186C926.817 710.423 919.707 721.575 904.613 726.726C890.949 731.39 877.435 730.562 864.58 722.389Z" fill="black"/>
<path d="M289.037 636.126C285.743 636.126 282.945 636.126 279.813 636.126C279.813 648.127 279.813 659.698 279.813 672.092C281.431 672.092 283.007 672.092 284.583 672.092C296.246 672.092 307.908 672.092 319.57 672.092C328.563 672.091 328.563 672.091 327.37 681.868C311.734 681.868 296.01 681.868 279.475 681.868C279.475 685.823 279.475 689.236 279.475 692.65C279.475 699.481 279.682 706.32 279.395 713.139C279.231 717.011 280.295 718.327 284.363 718.238C296.686 717.969 309.019 718.14 321.348 718.14C330.213 718.141 330.528 718.539 328.748 727.783C309.045 727.783 289.292 727.783 269.214 727.783C269.214 694.058 269.214 660.51 269.214 626.239C271.168 626.239 272.937 626.239 274.706 626.239C290.367 626.239 306.028 626.238 321.689 626.24C330.171 626.24 330.385 626.517 328.738 636.126C315.747 636.126 302.64 636.126 289.037 636.126Z" fill="black"/>
<path d="M53.8741 638.309C52.2244 634.342 50.7239 630.727 49.1768 626.999C59.0317 624.973 59.8048 625.377 63.0766 633.102C73.1234 656.823 83.2029 680.53 93.2845 704.236C93.6071 704.995 94.091 705.685 94.9433 707.19C96.3443 704.309 97.6205 701.953 98.6638 699.498C107.96 677.624 117.212 655.732 126.482 633.848C130.049 625.427 130.056 625.429 140.838 626.795C125.672 662.312 110.624 697.556 94.9569 734.249C80.9083 701.442 67.4658 670.051 53.8741 638.309Z" fill="black"/>
<path d="M699.086 696C699.086 706.771 699.086 717.041 699.086 727.573C695.368 727.573 692.28 727.573 688.676 727.573C688.676 697.214 688.676 666.978 688.676 636.041C680.331 636.041 672.458 636.041 664.255 636.041C664.255 632.429 664.255 629.52 664.255 626.266C684.012 626.266 703.566 626.266 723.497 626.266C723.497 629.237 723.497 632.142 723.497 635.693C715.669 635.693 707.776 635.693 699.086 635.693C699.086 656.042 699.086 675.771 699.086 696Z" fill="black"/>
</g>
<defs>
<clipPath id="clip0_22_23">
<rect width="1600" height="900" fill="white"/>
</clipPath>
</defs>
</svg>
