<svg width="135" height="70" viewBox="0 0 135 70" fill="none" xmlns="http://www.w3.org/2000/svg">
<g clip-path="url(#clip0_392_10479)">
<path d="M131.452 28.5892C131.452 32.3516 131.447 36.0718 131.454 39.792C131.46 42.8072 130.269 45.1969 127.745 46.8605C126.473 47.699 125.033 48.0786 123.514 48.0945C121.743 48.1132 119.971 48.1196 118.201 48.0772C114.36 47.985 110.892 44.8385 110.636 40.6369C110.619 40.3558 110.608 40.0738 110.608 39.7922C110.607 33.3806 110.617 26.9689 110.603 20.5572C110.596 17.7407 111.666 15.4667 113.932 13.8011C115.154 12.9028 116.538 12.3502 118.073 12.3274C120.041 12.2982 122.01 12.2832 123.976 12.3363C127.064 12.4196 129.937 14.5918 130.958 17.5289C131.295 18.4974 131.45 19.4934 131.451 20.5146C131.455 23.192 131.452 25.8694 131.452 28.5892ZM117.463 38.9504C117.463 39.3169 117.459 39.6834 117.465 40.0497C117.477 40.8203 117.871 41.2086 118.648 41.2097C120.222 41.2122 121.797 41.2117 123.372 41.2099C124.23 41.2089 124.652 40.804 124.652 39.9504C124.656 33.4531 124.656 26.9559 124.652 20.4586C124.652 19.5269 124.204 19.0953 123.272 19.0943C121.809 19.0926 120.347 19.0932 118.885 19.0941C117.829 19.0947 117.463 19.4601 117.463 20.5157C117.463 26.6325 117.463 32.7492 117.463 38.9504Z" fill="#FDFDFD"/>
<path d="M7.08806 48.0234C5.9234 48.0234 4.80094 48.0234 3.63259 48.0234C3.61997 47.8321 3.59996 47.6704 3.59994 47.5086C3.59851 35.881 3.60059 24.2535 3.59033 12.6259C3.58999 12.2366 3.69199 12.1262 4.0823 12.13C6.06448 12.1494 8.04727 12.1162 10.0292 12.1452C12.1351 12.1762 14.164 12.5642 15.9733 13.7205C18.4949 15.3321 20.0505 17.6068 20.5998 20.5686C21.1144 23.3439 20.5449 25.88 18.9603 28.1938C18.7689 28.4733 18.8768 28.5997 19.0714 28.78C20.8877 30.4627 22.0043 32.543 22.4239 34.9726C22.9641 38.1007 22.2572 40.9639 20.3806 43.5141C19.002 45.3875 17.1955 46.7161 14.9895 47.4586C13.9371 47.8128 12.8527 48.0385 11.7276 48.0272C10.1953 48.0119 8.66272 48.0234 7.08806 48.0234ZM10.49 34.2151C10.49 36.4119 10.4953 38.6087 10.484 40.8054C10.4824 41.1133 10.5628 41.2488 10.8848 41.2194C11.2479 41.1862 11.6152 41.197 11.9774 41.1582C14.3763 40.9011 16.1496 38.4861 15.6752 36.1211C15.2137 33.8198 13.277 32.3668 10.7428 32.5771C10.6514 32.5847 10.5088 32.7596 10.5019 32.8639C10.474 33.2845 10.4902 33.7081 10.49 34.2151ZM12.9527 24.7848C14.1067 23.6449 14.3217 22.0285 13.5096 20.6533C12.8982 19.618 11.3936 18.8618 10.5263 19.1447C10.5263 21.3267 10.5263 23.5016 10.5263 25.6939C11.4609 25.7132 12.2369 25.4133 12.9527 24.7848Z" fill="#FEFEFE"/>
<path d="M42.9263 14.1476C43.2532 15.8701 43.5732 17.5569 43.8935 19.2437C44.374 21.7738 44.8531 24.3042 45.3357 26.8339C45.8078 29.3082 46.2851 31.7815 46.7575 34.2558C47.3723 37.4765 47.9831 40.698 48.5987 43.9186C48.8286 45.121 49.0684 46.3214 49.3003 47.5233C49.3288 47.6709 49.337 47.8223 49.3605 48.0221C49.1619 48.0221 49.0112 48.0221 48.8604 48.0221C46.9064 48.0221 44.9521 48.0076 42.9984 48.0332C42.5588 48.0389 42.406 47.9083 42.3275 47.4752C41.9337 45.3015 41.5024 43.1347 41.0757 40.9209C40.9405 40.9134 40.8057 40.8996 40.6709 40.8995C38.52 40.8981 36.3691 40.905 34.2183 40.8916C33.8932 40.8895 33.7655 40.9816 33.6867 41.3115C33.177 43.4451 32.6353 45.5709 32.1156 47.7022C32.0592 47.9337 31.973 48.0278 31.7253 48.0269C29.5463 48.0183 27.3673 48.0217 25.1883 48.0204C25.1337 48.0204 25.079 48.0072 24.9692 47.9931C25.1525 47.2458 25.3299 46.5144 25.5114 45.784C26.4949 41.8259 27.4771 37.8674 28.4643 33.9102C29.363 30.3074 30.2683 26.7062 31.1691 23.1039C32.0528 19.5702 32.9401 16.0374 33.8076 12.4998C33.8835 12.1903 34.0184 12.1265 34.2962 12.1332C35.5032 12.1625 36.7107 12.1942 37.9179 12.1932C39.3079 12.192 40.6981 12.1667 42.0877 12.1305C42.4324 12.1215 42.5854 12.2074 42.6266 12.5782C42.6839 13.0939 42.8181 13.6011 42.9263 14.1476ZM37.712 25.0684C36.9766 28.0344 36.2412 31.0005 35.4979 33.9984C36.9374 33.9984 38.3162 33.9984 39.7402 33.9984C39.1366 30.8224 38.5404 27.6853 37.9442 24.5482C37.9173 24.5454 37.8904 24.5427 37.8636 24.54C37.8169 24.6935 37.7702 24.8471 37.712 25.0684Z" fill="#FDFDFD"/>
<path d="M51.7383 47.1903C51.7383 35.6612 51.7383 24.1736 51.7383 12.686C51.7383 12.1373 51.7386 12.1369 52.2885 12.1368C54.2288 12.1366 56.1692 12.1368 58.1096 12.1368C58.2483 12.1368 58.387 12.1368 58.5811 12.1368C58.5811 21.7996 58.5811 31.4317 58.5811 41.113C62.6357 41.113 66.6353 41.113 70.6649 41.113C70.6649 43.4233 70.6649 45.6846 70.6649 48.022C70.493 48.022 70.3174 48.022 70.1418 48.022C64.2645 48.022 58.3872 48.022 52.5099 48.022C51.7383 48.022 51.7383 48.022 51.7383 47.1903Z" fill="#FDFDFD"/>
<path d="M79.8987 12.3101C79.9046 24.0904 79.904 35.8325 79.9124 47.5746C79.9126 47.9213 79.8199 48.0318 79.4637 48.0289C77.4671 48.0124 75.4703 48.0209 73.4736 48.0209C73.363 48.0209 73.2523 48.0209 73.0925 48.0209C73.0812 47.8344 73.0629 47.6725 73.0629 47.5106C73.0615 35.8812 73.0634 24.2519 73.0537 12.6226C73.0534 12.239 73.1454 12.1217 73.5424 12.126C75.5108 12.1475 77.4795 12.1329 79.4481 12.1417C79.5967 12.1424 79.745 12.2266 79.8987 12.3101Z" fill="#FDFDFD"/>
<path d="M86.1466 13.1644C88.551 13.1644 90.9133 13.1727 93.2754 13.1555C93.6262 13.1529 93.8033 13.2736 93.9468 13.5792C95.1666 16.1759 96.3956 18.7683 97.6274 21.3593C98.8048 23.836 99.9887 26.3096 101.171 28.784C101.205 28.8556 101.252 28.9213 101.353 29.0899C103.743 24.1052 106.096 19.1973 108.478 14.2315C108.308 14.2153 108.193 14.1948 108.077 14.1947C105.757 14.1928 103.437 14.1982 101.117 14.1866C100.833 14.1852 100.697 14.2857 100.579 14.5369C99.9235 15.9378 99.25 17.3302 98.5808 18.7247C98.54 18.8096 98.4838 18.887 98.395 19.0336C98.1835 18.6579 97.9825 18.3393 97.8262 18C97.779 17.8976 97.8248 17.7232 97.8801 17.6066C98.5671 16.158 99.2562 14.7101 99.9715 13.2754C100.032 13.1531 100.284 13.0652 100.447 13.0644C103.161 13.0516 105.875 13.0554 108.588 13.0554C109.133 13.0555 109.677 13.0554 110.318 13.0554C107.334 19.2512 104.387 25.369 101.392 31.5874C101.101 31.0084 100.859 30.5375 100.627 30.0619C98.5536 25.8162 96.4816 21.5698 94.4099 17.3232C93.9597 16.4003 93.5111 15.4766 93.066 14.5512C92.9641 14.3394 92.8655 14.1845 92.5754 14.1861C90.2133 14.199 87.851 14.1934 85.4888 14.1948C85.4225 14.1948 85.3561 14.2108 85.2211 14.2282C85.5355 14.8935 85.8291 15.524 86.1302 16.1509C87.3784 18.7495 88.6286 21.3472 89.8787 23.9449C91.2144 26.7202 92.5507 29.4952 93.887 32.2702C95.0401 34.6647 96.1983 37.0568 97.3368 39.4583C97.4114 39.6156 97.401 39.8752 97.3229 40.0342C96.0391 42.6461 94.7408 45.2509 93.4327 47.8507C93.3718 47.9718 93.19 48.1081 93.064 48.1087C89.8441 48.1225 86.6241 48.1194 83.4042 48.1172C83.3528 48.1172 83.3015 48.0926 83.1797 48.0615C85.8797 42.473 88.5655 36.914 91.291 31.2728C91.6415 32.0076 91.9551 32.564 91.52 33.3622C90.4371 35.3488 89.4679 37.3978 88.4589 39.4247C87.3056 41.7413 86.1584 44.0611 85.0096 46.38C84.943 46.5144 84.8852 46.6532 84.7935 46.8556C84.9852 46.8716 85.1155 46.8918 85.2458 46.8919C87.608 46.8938 89.9702 46.8885 92.3324 46.8996C92.6112 46.9009 92.7523 46.8167 92.8765 46.5603C93.9311 44.3828 94.9993 42.212 96.0733 40.0442C96.2191 39.7497 96.2035 39.495 96.0638 39.2066C93.5642 34.0421 91.0712 28.8744 88.5747 23.7084C86.941 20.3281 85.3037 16.9496 83.6693 13.5697C83.6213 13.4704 83.5872 13.3643 83.5084 13.1644C84.4103 13.1644 85.2574 13.1644 86.1466 13.1644Z" fill="#F0D100"/>
<path d="M45.1015 54.9775C45.1015 57.3246 45.1015 59.6294 45.1015 61.9342C45.0687 61.9441 45.0358 61.954 45.003 61.9639C43.4752 59.7898 41.9474 57.6157 40.4196 55.4416C40.3872 55.4511 40.3549 55.4607 40.3225 55.4703C40.3225 57.4854 40.3225 59.5006 40.3225 61.5466C39.9955 61.5466 39.7231 61.5466 39.4268 61.5466C39.4268 58.5638 39.4268 55.589 39.4268 52.6142C39.4537 52.6018 39.4806 52.5895 39.5075 52.5771C41.0433 54.7625 42.5791 56.9479 44.1149 59.1333C44.1449 59.1254 44.1749 59.1174 44.2049 59.1095C44.2049 57.0798 44.2049 55.05 44.2049 52.9943C44.5196 52.9943 44.7793 52.9943 45.1015 52.9943C45.1015 53.6476 45.1015 54.2914 45.1015 54.9775Z" fill="#F0F0F0"/>
<path d="M94.9324 56.5915C94.4697 57.5364 93.7163 58.0366 92.6447 58.2027C93.1099 58.7987 93.5307 59.336 93.9495 59.8749C94.3695 60.4154 94.7875 60.9575 95.2679 61.5783C94.8549 61.5783 94.5237 61.6041 94.2003 61.5651C94.0777 61.5503 93.9511 61.4027 93.8639 61.2872C93.2373 60.4568 92.6212 59.6184 92 58.784C91.4896 58.0985 91.4884 58.0993 90.5547 58.2351C90.5547 59.3311 90.5547 60.4358 90.5547 61.5601C90.2427 61.5601 89.9796 61.5601 89.6789 61.5601C89.67 61.4345 89.654 61.3138 89.6539 61.1931C89.6525 58.6015 89.6587 56.0099 89.6458 53.4183C89.644 53.0721 89.7346 52.9502 90.0925 52.9637C90.9201 52.9951 91.7545 52.9302 92.5768 53.0061C94.5347 53.1866 95.5089 54.6815 94.9324 56.5915ZM93.7532 56.8113C94.2956 56.1972 94.3759 55.4967 94.0615 54.7688C93.7489 54.045 93.1165 53.8189 92.3757 53.8209C91.8707 53.8222 91.3654 53.8299 90.8607 53.8168C90.6235 53.8106 90.5354 53.8961 90.5402 54.1332C90.5508 54.6534 90.5432 55.1739 90.5431 55.6942C90.5431 56.223 90.5431 56.7518 90.5431 57.268C90.6411 57.2975 90.6801 57.3193 90.7193 57.3195C91.3085 57.3224 91.8977 57.3213 92.4869 57.3236C92.9554 57.3254 93.3692 57.1872 93.7532 56.8113Z" fill="#F1F1F1"/>
<path d="M127.791 54.7206C127.658 54.6354 127.559 54.5523 127.463 54.4648C127.23 54.2511 127.035 53.9504 126.761 53.8367C126.038 53.5366 125.273 53.536 124.536 53.8066C124.029 53.9929 123.694 54.3605 123.657 54.9364C123.622 55.4836 123.832 55.9388 124.326 56.1489C125.032 56.449 125.775 56.663 126.501 56.9165C126.872 57.0458 127.249 57.1611 127.608 57.3174C128.406 57.6653 128.901 58.2518 128.931 59.157C128.962 60.0665 128.6 60.7996 127.801 61.2273C126.414 61.9688 124.987 61.9385 123.603 61.2194C122.991 60.9014 122.651 60.3282 122.511 59.5636C122.822 59.5636 123.108 59.555 123.394 59.5703C123.457 59.5737 123.554 59.651 123.571 59.7124C123.805 60.5437 124.462 60.791 125.206 60.8805C126.044 60.9813 126.883 60.9609 127.559 60.3594C128.29 59.7079 128.171 58.6371 127.281 58.2248C126.549 57.8856 125.743 57.7082 124.982 57.4275C124.498 57.2492 123.995 57.0746 123.572 56.7914C122.408 56.0128 122.417 54.3457 123.551 53.478C124.583 52.6894 126.515 52.623 127.584 53.3514C128.048 53.6674 128.378 54.0843 128.487 54.7207C128.239 54.7207 128.033 54.7207 127.791 54.7206Z" fill="#EEEEEE"/>
<path d="M107.133 54.4719C107.133 55.1487 107.149 55.7836 107.126 56.4171C107.114 56.7473 107.21 56.86 107.551 56.8534C108.62 56.8329 109.689 56.8452 110.757 56.8467C110.894 56.8468 111.031 56.8582 111.191 56.8654C111.191 57.1412 111.191 57.3889 111.191 57.6833C109.867 57.6833 108.539 57.6833 107.162 57.6833C107.151 57.8873 107.135 58.0486 107.134 58.21C107.131 58.9007 107.155 59.5923 107.124 60.2817C107.107 60.6691 107.248 60.7555 107.608 60.7483C108.69 60.7268 109.773 60.7406 110.856 60.7406C110.995 60.7406 111.135 60.7406 111.311 60.7406C111.311 61.0244 111.311 61.2809 111.311 61.5599C109.635 61.5599 107.967 61.5599 106.261 61.5599C106.252 61.4309 106.237 61.3101 106.237 61.1892C106.235 58.5956 106.235 56.002 106.237 53.4084C106.237 53.2089 106.167 52.9648 106.515 52.9658C108.102 52.9707 109.689 52.968 111.312 52.968C111.312 53.2533 111.312 53.5102 111.312 53.8099C109.932 53.8099 108.56 53.8099 107.133 53.8099C107.133 54.0436 107.133 54.2365 107.133 54.4719Z" fill="#ECECEC"/>
<path d="M72.9491 61.1015C72.2215 60.5665 71.8438 59.8625 71.8328 58.9969C71.8086 57.0958 71.8227 55.1942 71.8042 53.293C71.8008 52.9345 72.0044 52.9587 72.2389 52.966C72.4712 52.9733 72.7151 52.9009 72.7114 53.2997C72.6957 55.0038 72.7046 56.7082 72.7049 58.4125C72.7052 60.1521 73.6352 60.9788 75.3732 60.785C76.6948 60.6377 77.3121 59.9476 77.3147 58.6026C77.3181 56.8983 77.3156 55.194 77.3157 53.4897C77.3157 53.3375 77.3157 53.1852 77.3157 53.0001C77.6148 53.0001 77.8727 53.0001 78.1832 53.0001C78.1924 53.1245 78.2107 53.2581 78.2108 53.3917C78.2126 55.1383 78.2197 56.8849 78.2092 58.6314C78.2004 60.0894 77.6005 61.0326 76.3269 61.4684C75.174 61.8628 74.0337 61.7927 72.9491 61.1015Z" fill="#ECECEC"/>
<path d="M24.3877 53.806C24.1098 53.806 23.8737 53.806 23.6094 53.806C23.6094 54.8211 23.6094 55.7999 23.6094 56.8482C23.7459 56.8482 23.8789 56.8482 24.0119 56.8482C24.9959 56.8481 25.9799 56.8481 26.9639 56.8481C27.7227 56.8481 27.7227 56.8481 27.622 57.675C26.3027 57.675 24.9761 57.675 23.5809 57.675C23.5809 58.0096 23.5809 58.2983 23.5809 58.587C23.5809 59.1648 23.5984 59.7433 23.5741 60.3201C23.5603 60.6475 23.6501 60.7588 23.9933 60.7513C25.0331 60.7286 26.0737 60.743 27.1139 60.7431C27.8619 60.7431 27.8885 60.7768 27.7383 61.5587C26.0759 61.5587 24.4092 61.5587 22.7151 61.5587C22.7151 58.7061 22.7151 55.8685 22.7151 52.9698C22.88 52.9698 23.0293 52.9698 23.1785 52.9698C24.4999 52.9698 25.8213 52.9697 27.1427 52.9698C27.8584 52.9699 27.8764 52.9933 27.7375 53.806C26.6414 53.806 25.5354 53.806 24.3877 53.806Z" fill="#F0F0F0"/>
<path d="M4.54526 53.9897C4.40607 53.6542 4.27947 53.3483 4.14893 53.033C4.98043 52.8617 5.04567 52.8959 5.32172 53.5493C6.16942 55.5557 7.01988 57.5609 7.87051 59.566C7.89773 59.6302 7.93857 59.6885 8.01048 59.8159C8.12869 59.5722 8.23637 59.3729 8.3244 59.1653C9.10873 57.3151 9.88938 55.4634 10.6716 53.6123C10.9725 52.9 10.9731 52.9003 11.8828 53.0157C10.6032 56.0199 9.33352 59.001 8.01163 62.1046C6.82628 59.3297 5.69206 56.6745 4.54526 53.9897Z" fill="#EFEFEF"/>
<path d="M58.9857 58.8681C58.9857 59.7791 58.9857 60.6478 58.9857 61.5386C58.672 61.5386 58.4115 61.5386 58.1074 61.5386C58.1074 58.9707 58.1074 56.4133 58.1074 53.7965C57.4033 53.7965 56.739 53.7965 56.0469 53.7965C56.0469 53.491 56.0469 53.245 56.0469 52.9698C57.7139 52.9698 59.3638 52.9698 61.0455 52.9698C61.0455 53.221 61.0455 53.4667 61.0455 53.7671C60.3849 53.7671 59.7189 53.7671 58.9857 53.7671C58.9857 55.4882 58.9857 57.157 58.9857 58.8681Z" fill="#F1F1F1"/>
<path d="M117.463 38.9068C117.463 32.7478 117.463 26.631 117.463 20.5143C117.463 19.4587 117.829 19.0933 118.885 19.0927C120.347 19.0918 121.809 19.0912 123.271 19.0928C124.204 19.0939 124.651 19.5255 124.652 20.4572C124.656 26.9544 124.655 33.4517 124.652 39.949C124.652 40.8026 124.23 41.2075 123.372 41.2085C121.797 41.2103 120.222 41.2107 118.648 41.2083C117.871 41.2071 117.476 40.8189 117.464 40.0483C117.459 39.6819 117.463 39.3154 117.463 38.9068Z" fill="#020202"/>
<path d="M10.4892 34.1724C10.4893 33.7077 10.4732 33.2841 10.501 32.8635C10.5079 32.7592 10.6506 32.5843 10.742 32.5767C13.2762 32.3664 15.2129 33.8194 15.6744 36.1207C16.1488 38.4857 14.3755 40.9007 11.9765 41.1578C11.6144 41.1966 11.247 41.1858 10.884 41.219C10.5619 41.2484 10.4816 41.1129 10.4832 40.805C10.4945 38.6083 10.4892 36.4115 10.4892 34.1724Z" fill="#050505"/>
<path d="M12.9307 24.8059C12.2364 25.4134 11.4605 25.7133 10.5259 25.694C10.5259 23.5017 10.5259 21.3268 10.5259 19.1448C11.3931 18.8619 12.8978 19.6181 13.5092 20.6534C14.3213 22.0286 14.1062 23.645 12.9307 24.8059Z" fill="#080808"/>
<path d="M37.7177 25.0337C37.7702 24.8463 37.8168 24.6928 37.8635 24.5393C37.8904 24.542 37.9172 24.5447 37.9441 24.5474C38.5403 27.6845 39.1365 30.8216 39.7401 33.9977C38.3161 33.9977 36.9373 33.9977 35.4978 33.9977C36.2411 30.9997 36.9765 28.0337 37.7177 25.0337Z" fill="#060606"/>
<path d="M93.7322 56.8312C93.3699 57.1853 92.9561 57.3235 92.4876 57.3217C91.8984 57.3194 91.3092 57.3205 90.72 57.3176C90.6808 57.3174 90.6418 57.2956 90.5438 57.2662C90.5438 56.7499 90.5438 56.2211 90.5439 55.6924C90.5439 55.172 90.5515 54.6515 90.541 54.1314C90.5361 53.8943 90.6243 53.8087 90.8614 53.8149C91.3661 53.828 91.8714 53.8204 92.3764 53.819C93.1172 53.8171 93.7496 54.0432 94.0622 54.767C94.3767 55.4948 94.2963 56.1954 93.7322 56.8312Z" fill="#080808"/>
</g>
<defs>
<clipPath id="clip0_392_10479">
<rect width="135" height="70" fill="white"/>
</clipPath>
</defs>
</svg>
