<svg width="86" height="234" viewBox="0 0 86 234" fill="none" xmlns="http://www.w3.org/2000/svg">
<path d="M77.7795 94.0845L-13.3643 149.806L-13.9998 149.016L77.863 92.9711L77.7795 94.0845Z" fill="white"/>
<path d="M77.7795 107.831L-13.3643 163.552L-13.9998 162.763L77.863 106.717L77.7795 107.831Z" fill="white"/>
<path d="M77.7795 149.077L-13.3643 204.798L-13.9998 204.009L77.863 147.963L77.7795 149.077Z" fill="white"/>
<path d="M77.7795 121.581L-13.3643 177.302L-13.9998 176.513L77.863 120.467L77.7795 121.581Z" fill="white"/>
<path d="M77.7795 135.331L-13.3643 191.052L-13.9998 190.263L77.863 134.217L77.7795 135.331Z" fill="white"/>
<path d="M77.7795 176.577L-13.3643 232.298L-13.9998 231.509L77.863 175.463L77.7795 176.577Z" fill="white"/>
<path d="M77.7795 162.827L-13.3643 218.548L-13.9998 217.759L77.863 161.713L77.7795 162.827Z" fill="white"/>
<path d="M-5 0L78.6635 54.3498L78 69L-5 15L-5 0Z" fill="#EBB51F"/>
<path d="M-5 56L78.6635 110.35L78 125L-5 71L-5 56Z" fill="#EBB51F"/>
<path d="M-5.27051 27L78.393 81.3498L77.7295 96L-5.27051 42L-5.27051 27Z" fill="#EBB51F"/>
<path d="M-5.27051 83L78.393 137.35L77.7295 152L-5.27051 98L-5.27051 83Z" fill="#EBB51F"/>
</svg>
