<svg width="81" height="142" viewBox="0 0 81 142" fill="none" xmlns="http://www.w3.org/2000/svg">
<path d="M91.7795 2.08449L0.635666 57.8056L0.000170659 57.0164L91.863 0.971104L91.7795 2.08449Z" fill="white"/>
<path d="M91.7795 15.8306L0.635666 71.5517L0.000170659 70.7625L91.863 14.7172L91.7795 15.8306Z" fill="white"/>
<path d="M91.7795 57.0767L0.635666 112.798L0.000170659 112.009L91.863 55.9633L91.7795 57.0767Z" fill="white"/>
<path d="M91.7795 29.5806L0.635666 85.3017L0.000170659 84.5125L91.863 28.4672L91.7795 29.5806Z" fill="white"/>
<path d="M91.7795 43.3306L0.635666 99.0517L0.000170659 98.2625L91.863 42.2172L91.7795 43.3306Z" fill="white"/>
<path d="M91.7795 84.5767L0.635666 140.298L0.000170659 139.509L91.863 83.4633L91.7795 84.5767Z" fill="white"/>
<path d="M91.7795 70.8267L0.635666 126.548L0.000170659 125.759L91.863 69.7133L91.7795 70.8267Z" fill="white"/>
</svg>
